STARTFONT 2.1
COMMENT Copyright (C) 1994 Electrotechnical Laboratory, Japan.
COMMENT You can use, copy, modify, distribute this file for free.
COMMENT 94.09.14 Created by Takahashi N. <ntakahas@etl.go.jp>
FONT -Etl-Fixed-Medium-R-Normal--48-480-72-72-C-240-ISO8859-1
SIZE 48 72 72
FONTBOUNDINGBOX 24 48 0 -4
STARTPROPERTIES 20
FONTNAME_REGISTRY ""
FOUNDRY "ETL"
FAMILY_NAME "Fixed"
WEIGHT_NAME "Medium"
SLANT "R"
SETWIDTH_NAME "Normal"
ADD_STYLE_NAME ""
PIXEL_SIZE 48
POINT_SIZE 480
RESOLUTION_X 72
RESOLUTION_Y 72
SPACING "C"
AVERAGE_WIDTH 240
CHARSET_REGISTRY "ISO8859"
CHARSET_ENCODING "1"
DEFAULT_CHAR 32
FONT_DESCENT 4
FONT_ASCENT 44
_MULE_BASELINE_OFFSET -3
COPYRIGHT "Copyright (C) 1994 Electrotechnical Laboratory, Japan."
ENDPROPERTIES
CHARS 191
STARTCHAR SPACE
ENCODING 32
SWIDTH 1000 0
DWIDTH 24 0
BBX 24 48 0 -4
BITMAP
000000
000000
000000
000000
000000
000000
000000
000000
000000
000000
000000
000000
000000
000000
000000
000000
000000
000000
000000
000000
000000
000000
000000
000000
000000
000000
000000
000000
000000
000000
000000
000000
000000
000000
000000
000000
000000
000000
000000
000000
000000
000000
000000
000000
000000
000000
000000
000000
ENDCHAR
STARTCHAR EXCLAMATION MARK
ENCODING 33
SWIDTH 1000 0
DWIDTH 24 0
BBX 24 48 0 -4
BITMAP
000000
000000
000000
000000
000000
000000
000000
000000
000000
000000
003C00
003C00
003C00
003C00
003C00
003C00
003C00
003C00
003C00
003C00
003C00
003C00
003C00
003C00
003C00
003C00
003C00
003C00
003C00
003C00
000000
000000
000000
000000
003C00
003C00
00FF00
00FF00
003C00
003C00
000000
000000
000000
000000
000000
000000
000000
000000
ENDCHAR
STARTCHAR QUOTATION MARK
ENCODING 34
SWIDTH 1000 0
DWIDTH 24 0
BBX 24 48 0 -4
BITMAP
000000
000000
000000
000000
000000
000000
000000
000000
03C3C0
03C3C0
03C3C0
03C3C0
03C3C0
03C3C0
03C3C0
03C3C0
03C3C0
03C3C0
000000
000000
000000
000000
000000
000000
000000
000000
000000
000000
000000
000000
000000
000000
000000
000000
000000
000000
000000
000000
000000
000000
000000
000000
000000
000000
000000
000000
000000
000000
ENDCHAR
STARTCHAR NUMBER SIGN
ENCODING 35
SWIDTH 1000 0
DWIDTH 24 0
BBX 24 48 0 -4
BITMAP
000000
000000
000000
000000
000000
000000
000000
000000
000000
000000
00F0F0
00F0F0
00F0F0
00F0F0
00F0F0
00F0F0
0FFFFC
0FFFFC
0FFFFC
0FFFFC
03C3C0
03C3C0
03C3C0
03C3C0
03C3C0
03C3C0
03C3C0
03C3C0
3FFFF0
3FFFF0
3FFFF0
3FFFF0
0F0F00
0F0F00
0F0F00
0F0F00
0F0F00
0F0F00
000000
000000
000000
000000
000000
000000
000000
000000
000000
000000
ENDCHAR
STARTCHAR DOLLAR SIGN
ENCODING 36
SWIDTH 1000 0
DWIDTH 24 0
BBX 24 48 0 -4
BITMAP
000000
000000
000000
000000
000000
000000
000000
000000
000000
000000
003C00
003C00
03FFC0
03FFC0
0FFFFC
0FFFFC
3C3C3C
3C3C3C
3C3C00
3C3C00
0FFC00
0FFC00
03FFC0
03FFC0
003FF0
003FF0
003C3C
003C3C
003C3C
003C3C
3C3C3C
3C3C3C
3FFFF0
3FFFF0
0FFFC0
0FFFC0
003C00
003C00
000000
000000
000000
000000
000000
000000
000000
000000
000000
000000
ENDCHAR
STARTCHAR PERCENT SIGN
ENCODING 37
SWIDTH 1000 0
DWIDTH 24 0
BBX 24 48 0 -4
BITMAP
000000
000000
000000
000000
000000
000000
000000
000000
000000
000000
0FC0F0
0FC0F0
3FF0F0
3FF0F0
3CF3C0
3CF3C0
3FF3C0
3FF3C0
0FCF00
0FCF00
000F00
000F00
003C00
003C00
003C00
003C00
00F000
00F000
00F3F0
00F3F0
03CFFC
03CFFC
03CF3C
03CF3C
0F0FFC
0F0FFC
0F03F0
0F03F0
000000
000000
000000
000000
000000
000000
000000
000000
000000
000000
ENDCHAR
STARTCHAR AMPERSAND
ENCODING 38
SWIDTH 1000 0
DWIDTH 24 0
BBX 24 48 0 -4
BITMAP
000000
000000
000000
000000
000000
000000
000000
000000
000000
000000
003F00
003F00
00FFC0
00FFC0
03F3F0
03F3F0
03C0F0
03C0F0
03C3C0
03C3C0
00FFC0
00FFC0
03FF00
03FF00
0FFC00
0FFC00
3F0F3C
3F0F3C
3C03FC
3C03FC
3C03F0
3C03F0
3C03C0
3C03C0
0FFFFC
0FFFFC
03FC3C
03FC3C
000000
000000
000000
000000
000000
000000
000000
000000
000000
000000
ENDCHAR
STARTCHAR APOSTROPHE
ENCODING 39
SWIDTH 1000 0
DWIDTH 24 0
BBX 24 48 0 -4
BITMAP
000000
000000
000000
000000
000000
000000
003C00
003C00
00FF00
00FF00
00FF00
00FF00
000F00
000F00
000F00
000F00
003C00
003C00
00F000
00F000
000000
000000
000000
000000
000000
000000
000000
000000
000000
000000
000000
000000
000000
000000
000000
000000
000000
000000
000000
000000
000000
000000
000000
000000
000000
000000
000000
000000
ENDCHAR
STARTCHAR LEFT PARENTHESIS
ENCODING 40
SWIDTH 1000 0
DWIDTH 24 0
BBX 24 48 0 -4
BITMAP
000000
000000
000000
000000
000000
000000
000000
000000
000000
000000
0003C0
0003C0
000F00
000F00
003F00
003F00
003C00
003C00
00FC00
00FC00
00F000
00F000
00F000
00F000
00F000
00F000
00F000
00F000
00FC00
00FC00
003C00
003C00
003F00
003F00
000F00
000F00
0003C0
0003C0
000000
000000
000000
000000
000000
000000
000000
000000
000000
000000
ENDCHAR
STARTCHAR RIGHT PARENTHESIS
ENCODING 41
SWIDTH 1000 0
DWIDTH 24 0
BBX 24 48 0 -4
BITMAP
000000
000000
000000
000000
000000
000000
000000
000000
000000
000000
03C000
03C000
00F000
00F000
00FC00
00FC00
003C00
003C00
003F00
003F00
000F00
000F00
000F00
000F00
000F00
000F00
000F00
000F00
003F00
003F00
003C00
003C00
00FC00
00FC00
00F000
00F000
03C000
03C000
000000
000000
000000
000000
000000
000000
000000
000000
000000
000000
ENDCHAR
STARTCHAR ASTERISK
ENCODING 42
SWIDTH 1000 0
DWIDTH 24 0
BBX 24 48 0 -4
BITMAP
000000
000000
000000
000000
000000
000000
000000
000000
000000
000000
000000
000000
000000
000000
003C00
003C00
003C00
003C00
3C3C3C
3C3C3C
3F3CFC
3F3CFC
03FFC0
03FFC0
003C00
003C00
03FFC0
03FFC0
3F3CFC
3F3CFC
3C3C3C
3C3C3C
003C00
003C00
003C00
003C00
000000
000000
000000
000000
000000
000000
000000
000000
000000
000000
000000
000000
ENDCHAR
STARTCHAR PLUS SIGN
ENCODING 43
SWIDTH 1000 0
DWIDTH 24 0
BBX 24 48 0 -4
BITMAP
000000
000000
000000
000000
000000
000000
000000
000000
000000
000000
000000
000000
000000
000000
000000
000000
003C00
003C00
003C00
003C00
003C00
003C00
003C00
003C00
3FFFFC
3FFFFC
3FFFFC
3FFFFC
003C00
003C00
003C00
003C00
003C00
003C00
003C00
003C00
000000
000000
000000
000000
000000
000000
000000
000000
000000
000000
000000
000000
ENDCHAR
STARTCHAR COMMA
ENCODING 44
SWIDTH 1000 0
DWIDTH 24 0
BBX 24 48 0 -4
BITMAP
000000
000000
000000
000000
000000
000000
000000
000000
000000
000000
000000
000000
000000
000000
000000
000000
000000
000000
000000
000000
000000
000000
000000
000000
000000
000000
000000
000000
000000
000000
003C00
003C00
00FF00
00FF00
00FF00
00FF00
000F00
000F00
000F00
000F00
003C00
003C00
00F000
00F000
000000
000000
000000
000000
ENDCHAR
STARTCHAR HYPHEN, MINUS SIGN
ENCODING 45
SWIDTH 1000 0
DWIDTH 24 0
BBX 24 48 0 -4
BITMAP
000000
000000
000000
000000
000000
000000
000000
000000
000000
000000
000000
000000
000000
000000
000000
000000
000000
000000
000000
000000
000000
000000
000000
000000
3FFFFC
3FFFFC
3FFFFC
3FFFFC
000000
000000
000000
000000
000000
000000
000000
000000
000000
000000
000000
000000
000000
000000
000000
000000
000000
000000
000000
000000
ENDCHAR
STARTCHAR FULL STOP
ENCODING 46
SWIDTH 1000 0
DWIDTH 24 0
BBX 24 48 0 -4
BITMAP
000000
000000
000000
000000
000000
000000
000000
000000
000000
000000
000000
000000
000000
000000
000000
000000
000000
000000
000000
000000
000000
000000
000000
000000
000000
000000
000000
000000
000000
000000
003C00
003C00
00FF00
00FF00
00FF00
00FF00
003C00
003C00
000000
000000
000000
000000
000000
000000
000000
000000
000000
000000
ENDCHAR
STARTCHAR SOLIDUS
ENCODING 47
SWIDTH 1000 0
DWIDTH 24 0
BBX 24 48 0 -4
BITMAP
000000
000000
000000
000000
000000
000000
000000
000000
000000
000000
0000F0
0000F0
0000F0
0000F0
0003C0
0003C0
0003C0
0003C0
000F00
000F00
000F00
000F00
003C00
003C00
003C00
003C00
00F000
00F000
00F000
00F000
03C000
03C000
03C000
03C000
0F0000
0F0000
0F0000
0F0000
000000
000000
000000
000000
000000
000000
000000
000000
000000
000000
ENDCHAR
STARTCHAR DIGIT ZERO
ENCODING 48
SWIDTH 1000 0
DWIDTH 24 0
BBX 24 48 0 -4
BITMAP
000000
000000
000000
000000
000000
000000
000000
000000
000000
000000
00FF00
00FF00
03FFC0
03FFC0
0FC3F0
0FC3F0
0F00F0
0F00F0
0F03F0
0F03F0
0F0FF0
0F0FF0
0F3CF0
0F3CF0
0FF0F0
0FF0F0
0FC0F0
0FC0F0
0F00F0
0F00F0
0F00F0
0F00F0
0FC3F0
0FC3F0
03FFC0
03FFC0
00FF00
00FF00
000000
000000
000000
000000
000000
000000
000000
000000
000000
000000
ENDCHAR
STARTCHAR DIGIT ONE
ENCODING 49
SWIDTH 1000 0
DWIDTH 24 0
BBX 24 48 0 -4
BITMAP
000000
000000
000000
000000
000000
000000
000000
000000
000000
000000
003C00
003C00
00FC00
00FC00
03FC00
03FC00
0F3C00
0F3C00
003C00
003C00
003C00
003C00
003C00
003C00
003C00
003C00
003C00
003C00
003C00
003C00
003C00
003C00
003C00
003C00
0FFFF0
0FFFF0
0FFFF0
0FFFF0
000000
000000
000000
000000
000000
000000
000000
000000
000000
000000
ENDCHAR
STARTCHAR DIGIT TWO
ENCODING 50
SWIDTH 1000 0
DWIDTH 24 0
BBX 24 48 0 -4
BITMAP
000000
000000
000000
000000
000000
000000
000000
000000
000000
000000
00FFC0
00FFC0
03FFF0
03FFF0
0F00FC
0F00FC
0F003C
0F003C
00003C
00003C
0000F0
0000F0
0003C0
0003C0
000F00
000F00
003C00
003C00
00F000
00F000
03C000
03C000
0F0000
0F0000
0FFFFC
0FFFFC
0FFFFC
0FFFFC
000000
000000
000000
000000
000000
000000
000000
000000
000000
000000
ENDCHAR
STARTCHAR DIGIT THREE
ENCODING 51
SWIDTH 1000 0
DWIDTH 24 0
BBX 24 48 0 -4
BITMAP
000000
000000
000000
000000
000000
000000
000000
000000
000000
000000
00FFC0
00FFC0
03FFF0
03FFF0
0F00FC
0F00FC
0F003C
0F003C
00003C
00003C
0000F0
0000F0
003FC0
003FC0
003FF0
003FF0
00003C
00003C
00003C
00003C
0F003C
0F003C
0F00FC
0F00FC
03FFF0
03FFF0
00FFC0
00FFC0
000000
000000
000000
000000
000000
000000
000000
000000
000000
000000
ENDCHAR
STARTCHAR DIGIT FOUR
ENCODING 52
SWIDTH 1000 0
DWIDTH 24 0
BBX 24 48 0 -4
BITMAP
000000
000000
000000
000000
000000
000000
000000
000000
000000
000000
000F00
000F00
000F00
000F00
003C00
003C00
003C00
003C00
00F3C0
00F3C0
00F3C0
00F3C0
03C3C0
03C3C0
03C3C0
03C3C0
0F03C0
0F03C0
0FFFFC
0FFFFC
0FFFFC
0FFFFC
0003C0
0003C0
0003C0
0003C0
0003C0
0003C0
000000
000000
000000
000000
000000
000000
000000
000000
000000
000000
ENDCHAR
STARTCHAR DIGIT FIVE
ENCODING 53
SWIDTH 1000 0
DWIDTH 24 0
BBX 24 48 0 -4
BITMAP
000000
000000
000000
000000
000000
000000
000000
000000
000000
000000
0FFFF0
0FFFF0
0FFFF0
0FFFF0
0F0000
0F0000
0F0000
0F0000
0F0000
0F0000
0FFFC0
0FFFC0
0FFFF0
0FFFF0
0000FC
0000FC
00003C
00003C
00003C
00003C
0F003C
0F003C
0F00FC
0F00FC
03FFF0
03FFF0
00FFC0
00FFC0
000000
000000
000000
000000
000000
000000
000000
000000
000000
000000
ENDCHAR
STARTCHAR DIGIT SIX
ENCODING 54
SWIDTH 1000 0
DWIDTH 24 0
BBX 24 48 0 -4
BITMAP
000000
000000
000000
000000
000000
000000
000000
000000
000000
000000
00FFC0
00FFC0
03FFF0
03FFF0
0FC03C
0FC03C
0F003C
0F003C
0F0000
0F0000
0F3FC0
0F3FC0
0FFFF0
0FFFF0
0FC0FC
0FC0FC
0F003C
0F003C
0F003C
0F003C
0F003C
0F003C
0FC0FC
0FC0FC
03FFF0
03FFF0
00FFC0
00FFC0
000000
000000
000000
000000
000000
000000
000000
000000
000000
000000
ENDCHAR
STARTCHAR DIGIT SEVEN
ENCODING 55
SWIDTH 1000 0
DWIDTH 24 0
BBX 24 48 0 -4
BITMAP
000000
000000
000000
000000
000000
000000
000000
000000
000000
000000
0FFFFC
0FFFFC
0FFFFC
0FFFFC
0000F0
0000F0
0000F0
0000F0
0003C0
0003C0
0003C0
0003C0
000F00
000F00
000F00
000F00
003C00
003C00
003C00
003C00
00F000
00F000
00F000
00F000
03C000
03C000
03C000
03C000
000000
000000
000000
000000
000000
000000
000000
000000
000000
000000
ENDCHAR
STARTCHAR DIGIT EIGHT
ENCODING 56
SWIDTH 1000 0
DWIDTH 24 0
BBX 24 48 0 -4
BITMAP
000000
000000
000000
000000
000000
000000
000000
000000
000000
000000
00FF00
00FF00
03FFC0
03FFC0
0F00F0
0F00F0
0F00F0
0F00F0
0F00F0
0F00F0
03FFC0
03FFC0
03FFC0
03FFC0
0FC3F0
0FC3F0
3F00FC
3F00FC
3C003C
3C003C
3C003C
3C003C
3F00FC
3F00FC
0FFFF0
0FFFF0
03FFC0
03FFC0
000000
000000
000000
000000
000000
000000
000000
000000
000000
000000
ENDCHAR
STARTCHAR DIGIT NINE
ENCODING 57
SWIDTH 1000 0
DWIDTH 24 0
BBX 24 48 0 -4
BITMAP
000000
000000
000000
000000
000000
000000
000000
000000
000000
000000
00FFC0
00FFC0
03FFF0
03FFF0
0FC0FC
0FC0FC
0F003C
0F003C
0F003C
0F003C
0FC0FC
0FC0FC
03FFFC
03FFFC
00FF3C
00FF3C
00003C
00003C
00003C
00003C
0F003C
0F003C
0F00FC
0F00FC
03FFF0
03FFF0
00FFC0
00FFC0
000000
000000
000000
000000
000000
000000
000000
000000
000000
000000
ENDCHAR
STARTCHAR COLON
ENCODING 58
SWIDTH 1000 0
DWIDTH 24 0
BBX 24 48 0 -4
BITMAP
000000
000000
000000
000000
000000
000000
000000
000000
000000
000000
000000
000000
000000
000000
000000
000000
003C00
003C00
00FF00
00FF00
00FF00
00FF00
003C00
003C00
000000
000000
000000
000000
000000
000000
003C00
003C00
00FF00
00FF00
00FF00
00FF00
003C00
003C00
000000
000000
000000
000000
000000
000000
000000
000000
000000
000000
ENDCHAR
STARTCHAR SEMICOLON
ENCODING 59
SWIDTH 1000 0
DWIDTH 24 0
BBX 24 48 0 -4
BITMAP
000000
000000
000000
000000
000000
000000
000000
000000
000000
000000
000000
000000
000000
000000
000000
000000
003C00
003C00
00FF00
00FF00
00FF00
00FF00
003C00
003C00
000000
000000
000000
000000
000000
000000
003C00
003C00
00FF00
00FF00
00FF00
00FF00
000F00
000F00
000F00
000F00
003C00
003C00
00F000
00F000
000000
000000
000000
000000
ENDCHAR
STARTCHAR LESS-THAN SIGN
ENCODING 60
SWIDTH 1000 0
DWIDTH 24 0
BBX 24 48 0 -4
BITMAP
000000
000000
000000
000000
000000
000000
000000
000000
000000
000000
000000
000000
000000
000000
000000
000000
00003C
00003C
0003F0
0003F0
003F00
003F00
03FC00
03FC00
3FC000
3FC000
3FC000
3FC000
03FC00
03FC00
003FC0
003FC0
0003F0
0003F0
00003C
00003C
000000
000000
000000
000000
000000
000000
000000
000000
000000
000000
000000
000000
ENDCHAR
STARTCHAR EQUALS SIGN
ENCODING 61
SWIDTH 1000 0
DWIDTH 24 0
BBX 24 48 0 -4
BITMAP
000000
000000
000000
000000
000000
000000
000000
000000
000000
000000
000000
000000
000000
000000
000000
000000
000000
000000
000000
000000
3FFFFC
3FFFFC
3FFFFC
3FFFFC
000000
000000
000000
000000
3FFFFC
3FFFFC
3FFFFC
3FFFFC
000000
000000
000000
000000
000000
000000
000000
000000
000000
000000
000000
000000
000000
000000
000000
000000
ENDCHAR
STARTCHAR GREATER-THAN SIGN
ENCODING 62
SWIDTH 1000 0
DWIDTH 24 0
BBX 24 48 0 -4
BITMAP
000000
000000
000000
000000
000000
000000
000000
000000
000000
000000
000000
000000
000000
000000
000000
000000
3C0000
3C0000
0FC000
0FC000
00FC00
00FC00
003FC0
003FC0
0003FC
0003FC
0003FC
0003FC
003FC0
003FC0
00FC00
00FC00
0FC000
0FC000
3C0000
3C0000
000000
000000
000000
000000
000000
000000
000000
000000
000000
000000
000000
000000
ENDCHAR
STARTCHAR QUESTION MARK
ENCODING 63
SWIDTH 1000 0
DWIDTH 24 0
BBX 24 48 0 -4
BITMAP
000000
000000
000000
000000
000000
000000
000000
000000
000000
000000
00FF00
00FF00
03FFC0
03FFC0
0FC3F0
0FC3F0
0C00F0
0C00F0
0000F0
0000F0
0003C0
0003C0
000F00
000F00
003C00
003C00
003C00
003C00
003C00
003C00
000000
000000
000000
000000
003C00
003C00
00FF00
00FF00
003C00
003C00
000000
000000
000000
000000
000000
000000
000000
000000
ENDCHAR
STARTCHAR COMMERCIAL AT
ENCODING 64
SWIDTH 1000 0
DWIDTH 24 0
BBX 24 48 0 -4
BITMAP
000000
000000
000000
000000
000000
000000
000000
000000
000000
000000
00FFC0
00FFC0
03FFF0
03FFF0
0FC03C
0FC03C
0F003C
0F003C
0F0FFC
0F0FFC
0F3FFC
0F3FFC
0F3C3C
0F3C3C
0F3C3C
0F3C3C
0F3C3C
0F3C3C
0F3FFC
0F3FFC
0F0FF0
0F0FF0
0FC000
0FC000
03FFFC
03FFFC
00FFFC
00FFFC
000000
000000
000000
000000
000000
000000
000000
000000
000000
000000
ENDCHAR
STARTCHAR CAPITAL LETTER A
ENCODING 65
SWIDTH 1000 0
DWIDTH 24 0
BBX 24 48 0 -4
BITMAP
000000
000000
000000
000000
000000
000000
000000
000000
000000
000000
00FFC0
00FFC0
03FFF0
03FFF0
0FC0FC
0FC0FC
0F003C
0F003C
0F003C
0F003C
0F003C
0F003C
0FFFFC
0FFFFC
0FFFFC
0FFFFC
0F003C
0F003C
0F003C
0F003C
0F003C
0F003C
0F003C
0F003C
0F003C
0F003C
0F003C
0F003C
000000
000000
000000
000000
000000
000000
000000
000000
000000
000000
ENDCHAR
STARTCHAR CAPITAL LETTER B
ENCODING 66
SWIDTH 1000 0
DWIDTH 24 0
BBX 24 48 0 -4
BITMAP
000000
000000
000000
000000
000000
000000
000000
000000
000000
000000
0FFF00
0FFF00
0FFFC0
0FFFC0
0F03F0
0F03F0
0F00F0
0F00F0
0F00F0
0F00F0
0F03C0
0F03C0
0FFFC0
0FFFC0
0FFFF0
0FFFF0
0F00F0
0F00F0
0F003C
0F003C
0F003C
0F003C
0F00FC
0F00FC
0FFFF0
0FFFF0
0FFFC0
0FFFC0
000000
000000
000000
000000
000000
000000
000000
000000
000000
000000
ENDCHAR
STARTCHAR CAPITAL LETTER C
ENCODING 67
SWIDTH 1000 0
DWIDTH 24 0
BBX 24 48 0 -4
BITMAP
000000
000000
000000
000000
000000
000000
000000
000000
000000
000000
00FFC0
00FFC0
03FFF0
03FFF0
0FC0FC
0FC0FC
0F003C
0F003C
0F0000
0F0000
0F0000
0F0000
0F0000
0F0000
0F0000
0F0000
0F0000
0F0000
0F0000
0F0000
0F003C
0F003C
0FC0FC
0FC0FC
03FFF0
03FFF0
00FFC0
00FFC0
000000
000000
000000
000000
000000
000000
000000
000000
000000
000000
ENDCHAR
STARTCHAR CAPITAL LETTER D
ENCODING 68
SWIDTH 1000 0
DWIDTH 24 0
BBX 24 48 0 -4
BITMAP
000000
000000
000000
000000
000000
000000
000000
000000
000000
000000
0FFFC0
0FFFC0
0FFFF0
0FFFF0
0F00FC
0F00FC
0F003C
0F003C
0F003C
0F003C
0F003C
0F003C
0F003C
0F003C
0F003C
0F003C
0F003C
0F003C
0F003C
0F003C
0F003C
0F003C
0F00FC
0F00FC
0FFFF0
0FFFF0
0FFFC0
0FFFC0
000000
000000
000000
000000
000000
000000
000000
000000
000000
000000
ENDCHAR
STARTCHAR CAPITAL LETTER E
ENCODING 69
SWIDTH 1000 0
DWIDTH 24 0
BBX 24 48 0 -4
BITMAP
000000
000000
000000
000000
000000
000000
000000
000000
000000
000000
0FFFFC
0FFFFC
0FFFFC
0FFFFC
0F0000
0F0000
0F0000
0F0000
0F0000
0F0000
0F0000
0F0000
0FFFC0
0FFFC0
0FFFC0
0FFFC0
0F0000
0F0000
0F0000
0F0000
0F0000
0F0000
0F0000
0F0000
0FFFFC
0FFFFC
0FFFFC
0FFFFC
000000
000000
000000
000000
000000
000000
000000
000000
000000
000000
ENDCHAR
STARTCHAR CAPITAL LETTER F
ENCODING 70
SWIDTH 1000 0
DWIDTH 24 0
BBX 24 48 0 -4
BITMAP
000000
000000
000000
000000
000000
000000
000000
000000
000000
000000
0FFFFC
0FFFFC
0FFFFC
0FFFFC
0F0000
0F0000
0F0000
0F0000
0F0000
0F0000
0F0000
0F0000
0FFFC0
0FFFC0
0FFFC0
0FFFC0
0F0000
0F0000
0F0000
0F0000
0F0000
0F0000
0F0000
0F0000
0F0000
0F0000
0F0000
0F0000
000000
000000
000000
000000
000000
000000
000000
000000
000000
000000
ENDCHAR
STARTCHAR CAPITAL LETTER G
ENCODING 71
SWIDTH 1000 0
DWIDTH 24 0
BBX 24 48 0 -4
BITMAP
000000
000000
000000
000000
000000
000000
000000
000000
000000
000000
00FFC0
00FFC0
03FFF0
03FFF0
0FC0FC
0FC0FC
0F003C
0F003C
0F0000
0F0000
0F0000
0F0000
0F0000
0F0000
0F03FC
0F03FC
0F03FC
0F03FC
0F003C
0F003C
0F003C
0F003C
0FC0FC
0FC0FC
03FFF0
03FFF0
00FFC0
00FFC0
000000
000000
000000
000000
000000
000000
000000
000000
000000
000000
ENDCHAR
STARTCHAR CAPITAL LETTER H
ENCODING 72
SWIDTH 1000 0
DWIDTH 24 0
BBX 24 48 0 -4
BITMAP
000000
000000
000000
000000
000000
000000
000000
000000
000000
000000
0F003C
0F003C
0F003C
0F003C
0F003C
0F003C
0F003C
0F003C
0F003C
0F003C
0F003C
0F003C
0FFFFC
0FFFFC
0FFFFC
0FFFFC
0F003C
0F003C
0F003C
0F003C
0F003C
0F003C
0F003C
0F003C
0F003C
0F003C
0F003C
0F003C
000000
000000
000000
000000
000000
000000
000000
000000
000000
000000
ENDCHAR
STARTCHAR CAPITAL LETTER I
ENCODING 73
SWIDTH 1000 0
DWIDTH 24 0
BBX 24 48 0 -4
BITMAP
000000
000000
000000
000000
000000
000000
000000
000000
000000
000000
03FFC0
03FFC0
03FFC0
03FFC0
003C00
003C00
003C00
003C00
003C00
003C00
003C00
003C00
003C00
003C00
003C00
003C00
003C00
003C00
003C00
003C00
003C00
003C00
003C00
003C00
03FFC0
03FFC0
03FFC0
03FFC0
000000
000000
000000
000000
000000
000000
000000
000000
000000
000000
ENDCHAR
STARTCHAR CAPITAL LETTER J
ENCODING 74
SWIDTH 1000 0
DWIDTH 24 0
BBX 24 48 0 -4
BITMAP
000000
000000
000000
000000
000000
000000
000000
000000
000000
000000
00003C
00003C
00003C
00003C
00003C
00003C
00003C
00003C
00003C
00003C
00003C
00003C
00003C
00003C
00003C
00003C
00003C
00003C
00003C
00003C
0F003C
0F003C
0F00FC
0F00FC
03FFF0
03FFF0
00FFC0
00FFC0
000000
000000
000000
000000
000000
000000
000000
000000
000000
000000
ENDCHAR
STARTCHAR CAPITAL LETTER K
ENCODING 75
SWIDTH 1000 0
DWIDTH 24 0
BBX 24 48 0 -4
BITMAP
000000
000000
000000
000000
000000
000000
000000
000000
000000
000000
0F003C
0F003C
0F00F0
0F00F0
0F03C0
0F03C0
0F0F00
0F0F00
0F3C00
0F3C00
0FF000
0FF000
0FC000
0FC000
0FF000
0FF000
0F3C00
0F3C00
0F0F00
0F0F00
0F03C0
0F03C0
0F00F0
0F00F0
0F003C
0F003C
0F000C
0F000C
000000
000000
000000
000000
000000
000000
000000
000000
000000
000000
ENDCHAR
STARTCHAR CAPITAL LETTER L
ENCODING 76
SWIDTH 1000 0
DWIDTH 24 0
BBX 24 48 0 -4
BITMAP
000000
000000
000000
000000
000000
000000
000000
000000
000000
000000
0F0000
0F0000
0F0000
0F0000
0F0000
0F0000
0F0000
0F0000
0F0000
0F0000
0F0000
0F0000
0F0000
0F0000
0F0000
0F0000
0F0000
0F0000
0F0000
0F0000
0F0000
0F0000
0F0000
0F0000
0FFFFC
0FFFFC
0FFFFC
0FFFFC
000000
000000
000000
000000
000000
000000
000000
000000
000000
000000
ENDCHAR
STARTCHAR CAPITAL LETTER M
ENCODING 77
SWIDTH 1000 0
DWIDTH 24 0
BBX 24 48 0 -4
BITMAP
000000
000000
000000
000000
000000
000000
000000
000000
000000
000000
0F003C
0F003C
0FC0FC
0FC0FC
0FC0FC
0FC0FC
0FF3FC
0FF3FC
0FFFFC
0FFFFC
0F3F3C
0F3F3C
0F3F3C
0F3F3C
0F0C3C
0F0C3C
0F003C
0F003C
0F003C
0F003C
0F003C
0F003C
0F003C
0F003C
0F003C
0F003C
0F003C
0F003C
000000
000000
000000
000000
000000
000000
000000
000000
000000
000000
ENDCHAR
STARTCHAR CAPITAL LETTER N
ENCODING 78
SWIDTH 1000 0
DWIDTH 24 0
BBX 24 48 0 -4
BITMAP
000000
000000
000000
000000
000000
000000
000000
000000
000000
000000
0F003C
0F003C
0FC03C
0FC03C
0FC03C
0FC03C
0FF03C
0FF03C
0FF03C
0FF03C
0F3C3C
0F3C3C
0F3C3C
0F3C3C
0F0F3C
0F0F3C
0F0F3C
0F0F3C
0F03FC
0F03FC
0F03FC
0F03FC
0F00FC
0F00FC
0F00FC
0F00FC
0F003C
0F003C
000000
000000
000000
000000
000000
000000
000000
000000
000000
000000
ENDCHAR
STARTCHAR CAPITAL LETTER O
ENCODING 79
SWIDTH 1000 0
DWIDTH 24 0
BBX 24 48 0 -4
BITMAP
000000
000000
000000
000000
000000
000000
000000
000000
000000
000000
00FFC0
00FFC0
03FFF0
03FFF0
0FC0FC
0FC0FC
0F003C
0F003C
0F003C
0F003C
0F003C
0F003C
0F003C
0F003C
0F003C
0F003C
0F003C
0F003C
0F003C
0F003C
0F003C
0F003C
0FC0FC
0FC0FC
03FFF0
03FFF0
00FFC0
00FFC0
000000
000000
000000
000000
000000
000000
000000
000000
000000
000000
ENDCHAR
STARTCHAR CAPITAL LETTER P
ENCODING 80
SWIDTH 1000 0
DWIDTH 24 0
BBX 24 48 0 -4
BITMAP
000000
000000
000000
000000
000000
000000
000000
000000
000000
000000
0FFFC0
0FFFC0
0FFFF0
0FFFF0
0F00FC
0F00FC
0F003C
0F003C
0F003C
0F003C
0F00FC
0F00FC
0FFFF0
0FFFF0
0FFFC0
0FFFC0
0F0000
0F0000
0F0000
0F0000
0F0000
0F0000
0F0000
0F0000
0F0000
0F0000
0F0000
0F0000
000000
000000
000000
000000
000000
000000
000000
000000
000000
000000
ENDCHAR
STARTCHAR CAPITAL LETTER Q
ENCODING 81
SWIDTH 1000 0
DWIDTH 24 0
BBX 24 48 0 -4
BITMAP
000000
000000
000000
000000
000000
000000
000000
000000
000000
000000
00FFC0
00FFC0
03FFF0
03FFF0
0FC0FC
0FC0FC
0F003C
0F003C
0F003C
0F003C
0F003C
0F003C
0F003C
0F003C
0F003C
0F003C
0F003C
0F003C
0F003C
0F003C
0F03FC
0F03FC
0FC3FC
0FC3FC
03FFF0
03FFF0
00FFFF
00FFFF
00000F
00000F
000000
000000
000000
000000
000000
000000
000000
000000
ENDCHAR
STARTCHAR CAPITAL LETTER R
ENCODING 82
SWIDTH 1000 0
DWIDTH 24 0
BBX 24 48 0 -4
BITMAP
000000
000000
000000
000000
000000
000000
000000
000000
000000
000000
0FFFC0
0FFFC0
0FFFF0
0FFFF0
0F00FC
0F00FC
0F003C
0F003C
0F003C
0F003C
0F00FC
0F00FC
0FFFF0
0FFFF0
0FFFC0
0FFFC0
0F03C0
0F03C0
0F03C0
0F03C0
0F00F0
0F00F0
0F00F0
0F00F0
0F003C
0F003C
0F003C
0F003C
000000
000000
000000
000000
000000
000000
000000
000000
000000
000000
ENDCHAR
STARTCHAR CAPITAL LETTER S
ENCODING 83
SWIDTH 1000 0
DWIDTH 24 0
BBX 24 48 0 -4
BITMAP
000000
000000
000000
000000
000000
000000
000000
000000
000000
000000
00FFC0
00FFC0
03FFF0
03FFF0
0F00FC
0F00FC
0F003C
0F003C
0F0000
0F0000
0FC000
0FC000
03FFC0
03FFC0
00FFF0
00FFF0
0000FC
0000FC
00003C
00003C
0F003C
0F003C
0F00FC
0F00FC
0FFFF0
0FFFF0
03FFC0
03FFC0
000000
000000
000000
000000
000000
000000
000000
000000
000000
000000
ENDCHAR
STARTCHAR CAPITAL LETTER T
ENCODING 84
SWIDTH 1000 0
DWIDTH 24 0
BBX 24 48 0 -4
BITMAP
000000
000000
000000
000000
000000
000000
000000
000000
000000
000000
3FFFFC
3FFFFC
3FFFFC
3FFFFC
003C00
003C00
003C00
003C00
003C00
003C00
003C00
003C00
003C00
003C00
003C00
003C00
003C00
003C00
003C00
003C00
003C00
003C00
003C00
003C00
003C00
003C00
003C00
003C00
000000
000000
000000
000000
000000
000000
000000
000000
000000
000000
ENDCHAR
STARTCHAR CAPITAL LETTER U
ENCODING 85
SWIDTH 1000 0
DWIDTH 24 0
BBX 24 48 0 -4
BITMAP
000000
000000
000000
000000
000000
000000
000000
000000
000000
000000
0F003C
0F003C
0F003C
0F003C
0F003C
0F003C
0F003C
0F003C
0F003C
0F003C
0F003C
0F003C
0F003C
0F003C
0F003C
0F003C
0F003C
0F003C
0F003C
0F003C
0F003C
0F003C
0FC0FC
0FC0FC
03FFF0
03FFF0
00FFC0
00FFC0
000000
000000
000000
000000
000000
000000
000000
000000
000000
000000
ENDCHAR
STARTCHAR CAPITAL LETTER V
ENCODING 86
SWIDTH 1000 0
DWIDTH 24 0
BBX 24 48 0 -4
BITMAP
000000
000000
000000
000000
000000
000000
000000
000000
000000
000000
3C003C
3C003C
3C003C
3C003C
3C003C
3C003C
0F00F0
0F00F0
0F00F0
0F00F0
0F00F0
0F00F0
03C3C0
03C3C0
03C3C0
03C3C0
03C3C0
03C3C0
00C300
00C300
00FF00
00FF00
00FF00
00FF00
003C00
003C00
003C00
003C00
000000
000000
000000
000000
000000
000000
000000
000000
000000
000000
ENDCHAR
STARTCHAR CAPITAL LETTER W
ENCODING 87
SWIDTH 1000 0
DWIDTH 24 0
BBX 24 48 0 -4
BITMAP
000000
000000
000000
000000
000000
000000
000000
000000
000000
000000
0F003C
0F003C
0F003C
0F003C
0F003C
0F003C
0F003C
0F003C
0F003C
0F003C
0F003C
0F003C
0F0C3C
0F0C3C
0F3F3C
0F3F3C
0F3F3C
0F3F3C
0FF3FC
0FF3FC
0FF3FC
0FF3FC
0FC0FC
0FC0FC
0FC0FC
0FC0FC
0F003C
0F003C
000000
000000
000000
000000
000000
000000
000000
000000
000000
000000
ENDCHAR
STARTCHAR CAPITAL LETTER X
ENCODING 88
SWIDTH 1000 0
DWIDTH 24 0
BBX 24 48 0 -4
BITMAP
000000
000000
000000
000000
000000
000000
000000
000000
000000
000000
0F003C
0F003C
0F003C
0F003C
03C0F0
03C0F0
03C0F0
03C0F0
00F3C0
00F3C0
00F3C0
00F3C0
003F00
003F00
003F00
003F00
00F3C0
00F3C0
00F3C0
00F3C0
03C0F0
03C0F0
03C0F0
03C0F0
0F003C
0F003C
0F003C
0F003C
000000
000000
000000
000000
000000
000000
000000
000000
000000
000000
ENDCHAR
STARTCHAR CAPITAL LETTER Y
ENCODING 89
SWIDTH 1000 0
DWIDTH 24 0
BBX 24 48 0 -4
BITMAP
000000
000000
000000
000000
000000
000000
000000
000000
000000
000000
3C003C
3C003C
3C003C
3C003C
0F00F0
0F00F0
0F00F0
0F00F0
03C3C0
03C3C0
03FFC0
03FFC0
00FF00
00FF00
003C00
003C00
003C00
003C00
003C00
003C00
003C00
003C00
003C00
003C00
003C00
003C00
003C00
003C00
000000
000000
000000
000000
000000
000000
000000
000000
000000
000000
ENDCHAR
STARTCHAR CAPITAL LETTER Z
ENCODING 90
SWIDTH 1000 0
DWIDTH 24 0
BBX 24 48 0 -4
BITMAP
000000
000000
000000
000000
000000
000000
000000
000000
000000
000000
3FFFFC
3FFFFC
3FFFFC
3FFFFC
00003C
00003C
0000FC
0000FC
0003F0
0003F0
000FC0
000FC0
003F00
003F00
00FC00
00FC00
03F000
03F000
0FC000
0FC000
3F0000
3F0000
3C0000
3C0000
3FFFFC
3FFFFC
3FFFFC
3FFFFC
000000
000000
000000
000000
000000
000000
000000
000000
000000
000000
ENDCHAR
STARTCHAR LEFT SQUARE BRACKET
ENCODING 91
SWIDTH 1000 0
DWIDTH 24 0
BBX 24 48 0 -4
BITMAP
000000
000000
000000
000000
000000
000000
000000
000000
00FFC0
00FFC0
00FFC0
00FFC0
00F000
00F000
00F000
00F000
00F000
00F000
00F000
00F000
00F000
00F000
00F000
00F000
00F000
00F000
00F000
00F000
00F000
00F000
00F000
00F000
00F000
00F000
00FFC0
00FFC0
00FFC0
00FFC0
000000
000000
000000
000000
000000
000000
000000
000000
000000
000000
ENDCHAR
STARTCHAR REVERSE SOLIDUS
ENCODING 92
SWIDTH 1000 0
DWIDTH 24 0
BBX 24 48 0 -4
BITMAP
000000
000000
000000
000000
000000
000000
000000
000000
000000
000000
0F0000
0F0000
0F0000
0F0000
03C000
03C000
03C000
03C000
00F000
00F000
00F000
00F000
003C00
003C00
003C00
003C00
000F00
000F00
000F00
000F00
0003C0
0003C0
0003C0
0003C0
0000F0
0000F0
0000F0
0000F0
000000
000000
000000
000000
000000
000000
000000
000000
000000
000000
ENDCHAR
STARTCHAR RIGHT SQUARE BRACKET
ENCODING 93
SWIDTH 1000 0
DWIDTH 24 0
BBX 24 48 0 -4
BITMAP
000000
000000
000000
000000
000000
000000
000000
000000
03FF00
03FF00
03FF00
03FF00
000F00
000F00
000F00
000F00
000F00
000F00
000F00
000F00
000F00
000F00
000F00
000F00
000F00
000F00
000F00
000F00
000F00
000F00
000F00
000F00
000F00
000F00
03FF00
03FF00
03FF00
03FF00
000000
000000
000000
000000
000000
000000
000000
000000
000000
000000
ENDCHAR
STARTCHAR CIRCUMFLEX ACCENT
ENCODING 94
SWIDTH 1000 0
DWIDTH 24 0
BBX 24 48 0 -4
BITMAP
000000
000000
000000
000000
000000
000000
000000
000000
000C00
000C00
003F00
003F00
00F3C0
00F3C0
03C0F0
03C0F0
0F003C
0F003C
000000
000000
000000
000000
000000
000000
000000
000000
000000
000000
000000
000000
000000
000000
000000
000000
000000
000000
000000
000000
000000
000000
000000
000000
000000
000000
000000
000000
000000
000000
ENDCHAR
STARTCHAR LOW LINE
ENCODING 95
SWIDTH 1000 0
DWIDTH 24 0
BBX 24 48 0 -4
BITMAP
000000
000000
000000
000000
000000
000000
000000
000000
000000
000000
000000
000000
000000
000000
000000
000000
000000
000000
000000
000000
000000
000000
000000
000000
000000
000000
000000
000000
000000
000000
000000
000000
000000
000000
000000
000000
000000
000000
000000
000000
FFFFFF
FFFFFF
FFFFFF
FFFFFF
000000
000000
000000
000000
ENDCHAR
STARTCHAR GRAVE ACCENT
ENCODING 96
SWIDTH 1000 0
DWIDTH 24 0
BBX 24 48 0 -4
BITMAP
000000
000000
000000
000000
000000
000000
000F00
000F00
003C00
003C00
00F000
00F000
00F000
00F000
00FF00
00FF00
00FF00
00FF00
003C00
003C00
000000
000000
000000
000000
000000
000000
000000
000000
000000
000000
000000
000000
000000
000000
000000
000000
000000
000000
000000
000000
000000
000000
000000
000000
000000
000000
000000
000000
ENDCHAR
STARTCHAR SMALL LETTER a
ENCODING 97
SWIDTH 1000 0
DWIDTH 24 0
BBX 24 48 0 -4
BITMAP
000000
000000
000000
000000
000000
000000
000000
000000
000000
000000
000000
000000
000000
000000
000000
000000
003FC0
003FC0
00FFF0
00FFF0
03C03C
03C03C
00003C
00003C
003FFC
003FFC
03FFFC
03FFFC
0F003C
0F003C
0F00FC
0F00FC
0F03FC
0F03FC
0FFF3C
0FFF3C
03FC3C
03FC3C
000000
000000
000000
000000
000000
000000
000000
000000
000000
000000
ENDCHAR
STARTCHAR SMALL LETTER b
ENCODING 98
SWIDTH 1000 0
DWIDTH 24 0
BBX 24 48 0 -4
BITMAP
000000
000000
000000
000000
000000
000000
000000
000000
000000
000000
0F0000
0F0000
0F0000
0F0000
0F0000
0F0000
0F0000
0F0000
0F0FC0
0F0FC0
0F3FF0
0F3FF0
0FF0FC
0FF0FC
0FC03C
0FC03C
0F003C
0F003C
0F003C
0F003C
0FC03C
0FC03C
0FF0FC
0FF0FC
0F3FF0
0F3FF0
0F0FC0
0F0FC0
000000
000000
000000
000000
000000
000000
000000
000000
000000
000000
ENDCHAR
STARTCHAR SMALL LETTER c
ENCODING 99
SWIDTH 1000 0
DWIDTH 24 0
BBX 24 48 0 -4
BITMAP
000000
000000
000000
000000
000000
000000
000000
000000
000000
000000
000000
000000
000000
000000
000000
000000
000000
000000
00FFF0
00FFF0
03FFF0
03FFF0
0FC03C
0FC03C
0F003C
0F003C
0F0000
0F0000
0F0000
0F0000
0F0000
0F0000
0FC03C
0FC03C
03FFFC
03FFFC
00FFF0
00FFF0
000000
000000
000000
000000
000000
000000
000000
000000
000000
000000
ENDCHAR
STARTCHAR SMALL LETTER d
ENCODING 100
SWIDTH 1000 0
DWIDTH 24 0
BBX 24 48 0 -4
BITMAP
000000
000000
000000
000000
000000
000000
000000
000000
000000
000000
00003C
00003C
00003C
00003C
00003C
00003C
00003C
00003C
00FF3C
00FF3C
03FFFC
03FFFC
0FC0FC
0FC0FC
0F003C
0F003C
0F003C
0F003C
0F003C
0F003C
0F00FC
0F00FC
0F03FC
0F03FC
03FF3C
03FF3C
00FC3C
00FC3C
000000
000000
000000
000000
000000
000000
000000
000000
000000
000000
ENDCHAR
STARTCHAR SMALL LETTER e
ENCODING 101
SWIDTH 1000 0
DWIDTH 24 0
BBX 24 48 0 -4
BITMAP
000000
000000
000000
000000
000000
000000
000000
000000
000000
000000
000000
000000
000000
000000
000000
000000
000000
000000
00FFC0
00FFC0
03FFF0
03FFF0
0FC03C
0FC03C
0F003C
0F003C
0FFFFC
0FFFFC
0FFFFC
0FFFFC
0F0000
0F0000
0F003C
0F003C
03FFFC
03FFFC
00FFF0
00FFF0
000000
000000
000000
000000
000000
000000
000000
000000
000000
000000
ENDCHAR
STARTCHAR SMALL LETTER f
ENCODING 102
SWIDTH 1000 0
DWIDTH 24 0
BBX 24 48 0 -4
BITMAP
000000
000000
000000
000000
000000
000000
000000
000000
000000
000000
000FC0
000FC0
003FC0
003FC0
003C00
003C00
003C00
003C00
003C00
003C00
03FFC0
03FFC0
03FFC0
03FFC0
003C00
003C00
003C00
003C00
003C00
003C00
003C00
003C00
003C00
003C00
003C00
003C00
003C00
003C00
000000
000000
000000
000000
000000
000000
000000
000000
000000
000000
ENDCHAR
STARTCHAR SMALL LETTER g
ENCODING 103
SWIDTH 1000 0
DWIDTH 24 0
BBX 24 48 0 -4
BITMAP
000000
000000
000000
000000
000000
000000
000000
000000
000000
000000
000000
000000
000000
000000
000000
000000
000000
000000
00FC3C
00FC3C
03FF3C
03FF3C
0FC3FC
0FC3FC
0F00FC
0F00FC
0F003C
0F003C
0F003C
0F003C
0F003C
0F003C
0FC0FC
0FC0FC
03FFFC
03FFFC
00FF3C
00FF3C
00003C
00003C
00003C
00003C
00003C
00003C
00FFF0
00FFF0
003FC0
003FC0
ENDCHAR
STARTCHAR SMALL LETTER h
ENCODING 104
SWIDTH 1000 0
DWIDTH 24 0
BBX 24 48 0 -4
BITMAP
000000
000000
000000
000000
000000
000000
000000
000000
000000
000000
0F0000
0F0000
0F0000
0F0000
0F0000
0F0000
0F0000
0F0000
0F0FC0
0F0FC0
0F3FF0
0F3FF0
0FF0FC
0FF0FC
0FC03C
0FC03C
0F003C
0F003C
0F003C
0F003C
0F003C
0F003C
0F003C
0F003C
0F003C
0F003C
0F003C
0F003C
000000
000000
000000
000000
000000
000000
000000
000000
000000
000000
ENDCHAR
STARTCHAR SMALL LETTER i
ENCODING 105
SWIDTH 1000 0
DWIDTH 24 0
BBX 24 48 0 -4
BITMAP
000000
000000
000000
000000
000000
000000
000000
000000
000000
000000
003C00
003C00
003C00
003C00
000000
000000
000000
000000
003C00
003C00
003C00
003C00
003C00
003C00
003C00
003C00
003C00
003C00
003C00
003C00
003C00
003C00
003C00
003C00
003C00
003C00
003C00
003C00
000000
000000
000000
000000
000000
000000
000000
000000
000000
000000
ENDCHAR
STARTCHAR SMALL LETTER j
ENCODING 106
SWIDTH 1000 0
DWIDTH 24 0
BBX 24 48 0 -4
BITMAP
000000
000000
000000
000000
000000
000000
000000
000000
000000
000000
003C00
003C00
003C00
003C00
000000
000000
000000
000000
003C00
003C00
003C00
003C00
003C00
003C00
003C00
003C00
003C00
003C00
003C00
003C00
003C00
003C00
003C00
003C00
003C00
003C00
003C00
003C00
003C00
003C00
003C00
003C00
0FFC00
0FFC00
0FC000
0FC000
000000
000000
ENDCHAR
STARTCHAR SMALL LETTER k
ENCODING 107
SWIDTH 1000 0
DWIDTH 24 0
BBX 24 48 0 -4
BITMAP
000000
000000
000000
000000
000000
000000
000000
000000
000000
000000
000000
000000
0F0000
0F0000
0F0000
0F0000
0F00F0
0F00F0
0F03F0
0F03F0
0F0FC0
0F0FC0
0F3F00
0F3F00
0FFC00
0FFC00
0FF000
0FF000
0FFC00
0FFC00
0F3F00
0F3F00
0F0FC0
0F0FC0
0F03F0
0F03F0
0F00F0
0F00F0
000000
000000
000000
000000
000000
000000
000000
000000
000000
000000
ENDCHAR
STARTCHAR SMALL LETTER l
ENCODING 108
SWIDTH 1000 0
DWIDTH 24 0
BBX 24 48 0 -4
BITMAP
000000
000000
000000
000000
000000
000000
000000
000000
000000
000000
003C00
003C00
003C00
003C00
003C00
003C00
003C00
003C00
003C00
003C00
003C00
003C00
003C00
003C00
003C00
003C00
003C00
003C00
003C00
003C00
003C00
003C00
003C00
003C00
003FC0
003FC0
000FC0
000FC0
000000
000000
000000
000000
000000
000000
000000
000000
000000
000000
ENDCHAR
STARTCHAR SMALL LETTER m
ENCODING 109
SWIDTH 1000 0
DWIDTH 24 0
BBX 24 48 0 -4
BITMAP
000000
000000
000000
000000
000000
000000
000000
000000
000000
000000
000000
000000
000000
000000
000000
000000
3C0000
3C0000
3CF3F0
3CF3F0
3FFFFC
3FFFFC
3C3C3C
3C3C3C
3C3C3C
3C3C3C
3C3C3C
3C3C3C
3C3C3C
3C3C3C
3C3C3C
3C3C3C
3C3C3C
3C3C3C
3C3C3C
3C3C3C
3C3C3C
3C3C3C
000000
000000
000000
000000
000000
000000
000000
000000
000000
000000
ENDCHAR
STARTCHAR SMALL LETTER n
ENCODING 110
SWIDTH 1000 0
DWIDTH 24 0
BBX 24 48 0 -4
BITMAP
000000
000000
000000
000000
000000
000000
000000
000000
000000
000000
000000
000000
000000
000000
000000
000000
000000
000000
0F0FC0
0F0FC0
0F3FF0
0F3FF0
0FF03C
0FF03C
0FC03C
0FC03C
0F003C
0F003C
0F003C
0F003C
0F003C
0F003C
0F003C
0F003C
0F003C
0F003C
0F003C
0F003C
000000
000000
000000
000000
000000
000000
000000
000000
000000
000000
ENDCHAR
STARTCHAR SMALL LETTER o
ENCODING 111
SWIDTH 1000 0
DWIDTH 24 0
BBX 24 48 0 -4
BITMAP
000000
000000
000000
000000
000000
000000
000000
000000
000000
000000
000000
000000
000000
000000
000000
000000
000000
000000
00FFC0
00FFC0
03FFF0
03FFF0
0FC0FC
0FC0FC
0F003C
0F003C
0F003C
0F003C
0F003C
0F003C
0F003C
0F003C
0FC0FC
0FC0FC
03FFF0
03FFF0
00FFC0
00FFC0
000000
000000
000000
000000
000000
000000
000000
000000
000000
000000
ENDCHAR
STARTCHAR SMALL LETTER p
ENCODING 112
SWIDTH 1000 0
DWIDTH 24 0
BBX 24 48 0 -4
BITMAP
000000
000000
000000
000000
000000
000000
000000
000000
000000
000000
000000
000000
000000
000000
000000
000000
000000
000000
0F0FC0
0F0FC0
0F3FF0
0F3FF0
0FF0FC
0FF0FC
0FC03C
0FC03C
0F003C
0F003C
0F003C
0F003C
0FC03C
0FC03C
0FF0FC
0FF0FC
0F3FF0
0F3FF0
0F0FC0
0F0FC0
0F0000
0F0000
0F0000
0F0000
0F0000
0F0000
0F0000
0F0000
000000
000000
ENDCHAR
STARTCHAR SMALL LETTER q
ENCODING 113
SWIDTH 1000 0
DWIDTH 24 0
BBX 24 48 0 -4
BITMAP
000000
000000
000000
000000
000000
000000
000000
000000
000000
000000
000000
000000
000000
000000
000000
000000
000000
000000
00FC3C
00FC3C
03FF3C
03FF3C
0FC3FC
0FC3FC
0F00FC
0F00FC
0F003C
0F003C
0F003C
0F003C
0F00FC
0F00FC
0FC3FC
0FC3FC
03FF3C
03FF3C
00FC3C
00FC3C
00003C
00003C
00003C
00003C
00003C
00003C
00003C
00003C
000000
000000
ENDCHAR
STARTCHAR SMALL LETTER r
ENCODING 114
SWIDTH 1000 0
DWIDTH 24 0
BBX 24 48 0 -4
BITMAP
000000
000000
000000
000000
000000
000000
000000
000000
000000
000000
000000
000000
000000
000000
000000
000000
000000
000000
0F0FC0
0F0FC0
0F3FF0
0F3FF0
0FF03C
0FF03C
0FC03C
0FC03C
0F0000
0F0000
0F0000
0F0000
0F0000
0F0000
0F0000
0F0000
0F0000
0F0000
0F0000
0F0000
000000
000000
000000
000000
000000
000000
000000
000000
000000
000000
ENDCHAR
STARTCHAR SMALL LETTER s
ENCODING 115
SWIDTH 1000 0
DWIDTH 24 0
BBX 24 48 0 -4
BITMAP
000000
000000
000000
000000
000000
000000
000000
000000
000000
000000
000000
000000
000000
000000
000000
000000
000000
000000
03FFF0
03FFF0
0FFFFC
0FFFFC
0F000C
0F000C
0F0000
0F0000
03FFC0
03FFC0
00FFF0
00FFF0
00003C
00003C
0F003C
0F003C
0FFFFC
0FFFFC
03FFF0
03FFF0
000000
000000
000000
000000
000000
000000
000000
000000
000000
000000
ENDCHAR
STARTCHAR SMALL LETTER t
ENCODING 116
SWIDTH 1000 0
DWIDTH 24 0
BBX 24 48 0 -4
BITMAP
000000
000000
000000
000000
000000
000000
000000
000000
000000
000000
000000
000000
003C00
003C00
003C00
003C00
003C00
003C00
03FFC0
03FFC0
03FFC0
03FFC0
003C00
003C00
003C00
003C00
003C00
003C00
003C00
003C00
003C00
003C00
003C00
003C00
003FC0
003FC0
000FC0
000FC0
000000
000000
000000
000000
000000
000000
000000
000000
000000
000000
ENDCHAR
STARTCHAR SMALL LETTER u
ENCODING 117
SWIDTH 1000 0
DWIDTH 24 0
BBX 24 48 0 -4
BITMAP
000000
000000
000000
000000
000000
000000
000000
000000
000000
000000
000000
000000
000000
000000
000000
000000
000000
000000
0F003C
0F003C
0F003C
0F003C
0F003C
0F003C
0F003C
0F003C
0F003C
0F003C
0F003C
0F003C
0F00FC
0F00FC
0FC3FC
0FC3FC
03FF3C
03FF3C
00FC3C
00FC3C
000000
000000
000000
000000
000000
000000
000000
000000
000000
000000
ENDCHAR
STARTCHAR SMALL LETTER v
ENCODING 118
SWIDTH 1000 0
DWIDTH 24 0
BBX 24 48 0 -4
BITMAP
000000
000000
000000
000000
000000
000000
000000
000000
000000
000000
000000
000000
000000
000000
000000
000000
000000
000000
3C003C
3C003C
3C003C
3C003C
0F00F0
0F00F0
0F00F0
0F00F0
03C3C0
03C3C0
03C3C0
03C3C0
00FF00
00FF00
00FF00
00FF00
003C00
003C00
003C00
003C00
000000
000000
000000
000000
000000
000000
000000
000000
000000
000000
ENDCHAR
STARTCHAR SMALL LETTER w
ENCODING 119
SWIDTH 1000 0
DWIDTH 24 0
BBX 24 48 0 -4
BITMAP
000000
000000
000000
000000
000000
000000
000000
000000
000000
000000
000000
000000
000000
000000
000000
000000
000000
000000
0F003C
0F003C
0F003C
0F003C
0F003C
0F003C
0F003C
0F003C
0F0C3C
0F0C3C
0F3F3C
0F3F3C
0F3F3C
0F3F3C
0FF3FC
0FF3FC
0FC0FC
0FC0FC
0F003C
0F003C
000000
000000
000000
000000
000000
000000
000000
000000
000000
000000
ENDCHAR
STARTCHAR SMALL LETTER x
ENCODING 120
SWIDTH 1000 0
DWIDTH 24 0
BBX 24 48 0 -4
BITMAP
000000
000000
000000
000000
000000
000000
000000
000000
000000
000000
000000
000000
000000
000000
000000
000000
000000
000000
0F003C
0F003C
0F003C
0F003C
03C0F0
03C0F0
00F3C0
00F3C0
003F00
003F00
003F00
003F00
00F3C0
00F3C0
03C0F0
03C0F0
0F003C
0F003C
0F003C
0F003C
000000
000000
000000
000000
000000
000000
000000
000000
000000
000000
ENDCHAR
STARTCHAR SMALL LETTER y
ENCODING 121
SWIDTH 1000 0
DWIDTH 24 0
BBX 24 48 0 -4
BITMAP
000000
000000
000000
000000
000000
000000
000000
000000
000000
000000
000000
000000
000000
000000
000000
000000
000000
000000
0F003C
0F003C
0F003C
0F003C
0F003C
0F003C
0F003C
0F003C
0F003C
0F003C
0F003C
0F003C
0F003C
0F003C
0F00FC
0F00FC
03FFFC
03FFFC
00FF3C
00FF3C
00003C
00003C
00003C
00003C
00003C
00003C
03FFF0
03FFF0
00FFC0
00FFC0
ENDCHAR
STARTCHAR SMALL LETTER z
ENCODING 122
SWIDTH 1000 0
DWIDTH 24 0
BBX 24 48 0 -4
BITMAP
000000
000000
000000
000000
000000
000000
000000
000000
000000
000000
000000
000000
000000
000000
000000
000000
000000
000000
0FFFFC
0FFFFC
0FFFFC
0FFFFC
0000F0
0000F0
0003C0
0003C0
000F00
000F00
003C00
003C00
00F000
00F000
03C000
03C000
0FFFFC
0FFFFC
0FFFFC
0FFFFC
000000
000000
000000
000000
000000
000000
000000
000000
000000
000000
ENDCHAR
STARTCHAR LEFT CURLY BRACKET
ENCODING 123
SWIDTH 1000 0
DWIDTH 24 0
BBX 24 48 0 -4
BITMAP
000000
000000
000000
000000
000000
000000
000000
000000
000FC0
000FC0
003C00
003C00
003C00
003C00
003C00
003C00
003C00
003C00
003C00
003C00
00F000
00F000
03F000
03F000
00F000
00F000
003C00
003C00
003C00
003C00
003C00
003C00
003C00
003C00
003C00
003C00
000FC0
000FC0
000000
000000
000000
000000
000000
000000
000000
000000
000000
000000
ENDCHAR
STARTCHAR VERTICAL LINE
ENCODING 124
SWIDTH 1000 0
DWIDTH 24 0
BBX 24 48 0 -4
BITMAP
000000
000000
003C00
003C00
003C00
003C00
003C00
003C00
003C00
003C00
003C00
003C00
003C00
003C00
003C00
003C00
003C00
003C00
003C00
003C00
003C00
003C00
003C00
003C00
003C00
003C00
003C00
003C00
003C00
003C00
003C00
003C00
003C00
003C00
003C00
003C00
003C00
003C00
003C00
003C00
003C00
003C00
003C00
003C00
003C00
003C00
000000
000000
ENDCHAR
STARTCHAR RIGHT CURLY BRACKET
ENCODING 125
SWIDTH 1000 0
DWIDTH 24 0
BBX 24 48 0 -4
BITMAP
000000
000000
000000
000000
000000
000000
000000
000000
03F000
03F000
003C00
003C00
003C00
003C00
003C00
003C00
003C00
003C00
003C00
003C00
000F00
000F00
000FC0
000FC0
000F00
000F00
003C00
003C00
003C00
003C00
003C00
003C00
003C00
003C00
003C00
003C00
03F000
03F000
000000
000000
000000
000000
000000
000000
000000
000000
000000
000000
ENDCHAR
STARTCHAR TILDE
ENCODING 126
SWIDTH 1000 0
DWIDTH 24 0
BBX 24 48 0 -4
BITMAP
000000
000000
000000
000000
000000
000000
000000
000000
03F00C
03F00C
0FFC3C
0FFC3C
0C3FFC
0C3FFC
3C03F0
3C03F0
000000
000000
000000
000000
000000
000000
000000
000000
000000
000000
000000
000000
000000
000000
000000
000000
000000
000000
000000
000000
000000
000000
000000
000000
000000
000000
000000
000000
000000
000000
000000
000000
ENDCHAR
STARTCHAR NO-BREAK SPACE
ENCODING 160
SWIDTH 1000 0
DWIDTH 24 0
BBX 24 48 0 -4
BITMAP
000000
000000
000000
000000
000000
000000
000000
000000
000000
000000
000000
000000
000000
000000
000000
000000
000000
000000
000000
000000
000000
000000
000000
000000
000000
000000
000000
000000
000000
000000
000000
000000
000000
000000
000000
000000
000000
000000
000000
000000
000000
000000
000000
000000
000000
000000
000000
000000
ENDCHAR
STARTCHAR INVERTED EXCLAMATION MARK
ENCODING 161
SWIDTH 1000 0
DWIDTH 24 0
BBX 24 48 0 -4
BITMAP
000000
000000
000000
000000
000000
000000
000000
000000
003C00
003C00
00FF00
00FF00
003C00
003C00
000000
000000
000000
000000
003C00
003C00
003C00
003C00
003C00
003C00
003C00
003C00
003C00
003C00
003C00
003C00
003C00
003C00
003C00
003C00
003C00
003C00
003C00
003C00
000000
000000
000000
000000
000000
000000
000000
000000
000000
000000
ENDCHAR
STARTCHAR CENT SIGN
ENCODING 162
SWIDTH 1000 0
DWIDTH 24 0
BBX 24 48 0 -4
BITMAP
000000
000000
000000
000000
000000
000000
000000
000000
000000
000000
000F00
000F00
000F00
000F00
00FFC0
00FFC0
03FFF0
03FFF0
0FCF3C
0FCF3C
0F0F3C
0F0F3C
0F0F00
0F0F00
0F0F00
0F0F00
0F0F3C
0F0F3C
0FCF3C
0FCF3C
03FFF0
03FFF0
00FFC0
00FFC0
000F00
000F00
000F00
000F00
000000
000000
000000
000000
000000
000000
000000
000000
000000
000000
ENDCHAR
STARTCHAR POUND SIGN
ENCODING 163
SWIDTH 1000 0
DWIDTH 24 0
BBX 24 48 0 -4
BITMAP
000000
000000
000000
000000
000000
000000
000000
000000
000000
000000
003FC0
003FC0
00FFF0
00FFF0
03F0F0
03F0F0
03C000
03C000
03C000
03C000
03F000
03F000
0FFFF0
0FFFF0
0FFFF0
0FFFF0
00F000
00F000
00F000
00F000
03FFC0
03FFC0
0FFFF0
0FFFF0
0FC0FC
0FC0FC
0F003C
0F003C
000000
000000
000000
000000
000000
000000
000000
000000
000000
000000
ENDCHAR
STARTCHAR CURRENCY SIGN
ENCODING 164
SWIDTH 1000 0
DWIDTH 24 0
BBX 24 48 0 -4
BITMAP
000000
000000
000000
000000
000000
000000
000000
000000
000000
000000
000000
000000
000000
000000
3C003C
3C003C
3F3CFC
3F3CFC
0FFFF0
0FFFF0
03C3C0
03C3C0
0F00F0
0F00F0
0F00F0
0F00F0
03C3C0
03C3C0
0FFFF0
0FFFF0
3F3CFC
3F3CFC
3C003C
3C003C
000000
000000
000000
000000
000000
000000
000000
000000
000000
000000
000000
000000
000000
000000
ENDCHAR
STARTCHAR YEN SIGN
ENCODING 165
SWIDTH 1000 0
DWIDTH 24 0
BBX 24 48 0 -4
BITMAP
000000
000000
000000
000000
000000
000000
000000
000000
000000
000000
0F00F0
0F00F0
0FC3F0
0FC3F0
03C3C0
03C3C0
03FFC0
03FFC0
00FF00
00FF00
0FFFF0
0FFFF0
0FFFF0
0FFFF0
003C00
003C00
0FFFF0
0FFFF0
0FFFF0
0FFFF0
003C00
003C00
003C00
003C00
003C00
003C00
003C00
003C00
000000
000000
000000
000000
000000
000000
000000
000000
000000
000000
ENDCHAR
STARTCHAR BROKEN BAR
ENCODING 166
SWIDTH 1000 0
DWIDTH 24 0
BBX 24 48 0 -4
BITMAP
000000
000000
003C00
003C00
003C00
003C00
003C00
003C00
003C00
003C00
003C00
003C00
003C00
003C00
003C00
003C00
003C00
003C00
003C00
003C00
003C00
003C00
000000
000000
000000
000000
003C00
003C00
003C00
003C00
003C00
003C00
003C00
003C00
003C00
003C00
003C00
003C00
003C00
003C00
003C00
003C00
003C00
003C00
003C00
003C00
000000
000000
ENDCHAR
STARTCHAR PARAGRAPH SIGN
ENCODING 167
SWIDTH 1000 0
DWIDTH 24 0
BBX 24 48 0 -4
BITMAP
000000
000000
000000
000000
000000
000000
000000
000000
00FFC0
00FFC0
03FFF0
03FFF0
0FC0FC
0FC0FC
0F003C
0F003C
0FC000
0FC000
03FFC0
03FFC0
03FFF0
03FFF0
0F003C
0F003C
0F003C
0F003C
03FFF0
03FFF0
00FFF0
00FFF0
0000FC
0000FC
0F003C
0F003C
0FC0FC
0FC0FC
03FFF0
03FFF0
00FFC0
00FFC0
000000
000000
000000
000000
000000
000000
000000
000000
ENDCHAR
STARTCHAR DIAERESIS
ENCODING 168
SWIDTH 1000 0
DWIDTH 24 0
BBX 24 48 0 -4
BITMAP
000000
000000
03C0F0
03C0F0
03C0F0
03C0F0
000000
000000
000000
000000
000000
000000
000000
000000
000000
000000
000000
000000
000000
000000
000000
000000
000000
000000
000000
000000
000000
000000
000000
000000
000000
000000
000000
000000
000000
000000
000000
000000
000000
000000
000000
000000
000000
000000
000000
000000
000000
000000
ENDCHAR
STARTCHAR COPYRIGHT SIGN
ENCODING 169
SWIDTH 1000 0
DWIDTH 24 0
BBX 24 48 0 -4
BITMAP
000000
000000
000000
000000
000000
000000
000000
000000
00FFC0
00FFC0
03FFF0
03FFF0
0FC0FC
0FC0FC
0F003C
0F003C
3C3F0F
3C3F0F
3CFFCF
3CFFCF
3CF0CF
3CF0CF
3CC00F
3CC00F
3CF0CF
3CF0CF
3CFFCF
3CFFCF
3C3F0F
3C3F0F
0F003C
0F003C
0FC0FC
0FC0FC
03FFF0
03FFF0
00FFC0
00FFC0
000000
000000
000000
000000
000000
000000
000000
000000
000000
000000
ENDCHAR
STARTCHAR FEMININE ORDINAL INDICATOR
ENCODING 170
SWIDTH 1000 0
DWIDTH 24 0
BBX 24 48 0 -4
BITMAP
00FFC0
00FFC0
03FFF0
03FFF0
03C0F0
03C0F0
003FF0
003FF0
00FFF0
00FFF0
03C0F0
03C0F0
03FFF0
03FFF0
00FFF0
00FFF0
000000
000000
03FFF0
03FFF0
03FFF0
03FFF0
000000
000000
000000
000000
000000
000000
000000
000000
000000
000000
000000
000000
000000
000000
000000
000000
000000
000000
000000
000000
000000
000000
000000
000000
000000
000000
ENDCHAR
STARTCHAR LEFT ANGLE QUOTATION MARK
ENCODING 171
SWIDTH 1000 0
DWIDTH 24 0
BBX 24 48 0 -4
BITMAP
000000
000000
000000
000000
000000
000000
000000
000000
000F3C
000F3C
003CF0
003CF0
003CF0
003CF0
00F3C0
00F3C0
00F3C0
00F3C0
03CF00
03CF00
03CF00
03CF00
0F3C00
0F3C00
0F3C00
0F3C00
03CF00
03CF00
03CF00
03CF00
00F3C0
00F3C0
00F3C0
00F3C0
003CF0
003CF0
003CF0
003CF0
000F3C
000F3C
000000
000000
000000
000000
000000
000000
000000
000000
ENDCHAR
STARTCHAR NOT SIGN
ENCODING 172
SWIDTH 1000 0
DWIDTH 24 0
BBX 24 48 0 -4
BITMAP
000000
000000
000000
000000
000000
000000
000000
000000
000000
000000
000000
000000
000000
000000
000000
000000
000000
000000
000000
000000
000000
000000
3FFFFC
3FFFFC
3FFFFC
3FFFFC
00003C
00003C
00003C
00003C
00003C
00003C
000000
000000
000000
000000
000000
000000
000000
000000
000000
000000
000000
000000
000000
000000
000000
000000
ENDCHAR
STARTCHAR SOFT HYPHEN
ENCODING 173
SWIDTH 1000 0
DWIDTH 24 0
BBX 24 48 0 -4
BITMAP
000000
000000
000000
000000
000000
000000
000000
000000
000000
000000
000000
000000
000000
000000
000000
000000
000000
000000
000000
000000
000000
000000
000000
000000
3FFFFC
3FFFFC
3FFFFC
3FFFFC
000000
000000
000000
000000
000000
000000
000000
000000
000000
000000
000000
000000
000000
000000
000000
000000
000000
000000
000000
000000
ENDCHAR
STARTCHAR REGISTERED TRADE MARK SIGN
ENCODING 174
SWIDTH 1000 0
DWIDTH 24 0
BBX 24 48 0 -4
BITMAP
000000
000000
000000
000000
000000
000000
000000
000000
00FFC0
00FFC0
03FFF0
03FFF0
0FC0FC
0FC0FC
0F003C
0F003C
3CFF0F
3CFF0F
3CF3CF
3CF3CF
3CF3CF
3CF3CF
3CFF0F
3CFF0F
3CFF0F
3CFF0F
3CF3CF
3CF3CF
3CF0CF
3CF0CF
0F003C
0F003C
0FC0FC
0FC0FC
03FFF0
03FFF0
00FFC0
00FFC0
000000
000000
000000
000000
000000
000000
000000
000000
000000
000000
ENDCHAR
STARTCHAR MACRON
ENCODING 175
SWIDTH 1000 0
DWIDTH 24 0
BBX 24 48 0 -4
BITMAP
3FFFFC
3FFFFC
3FFFFC
3FFFFC
000000
000000
000000
000000
000000
000000
000000
000000
000000
000000
000000
000000
000000
000000
000000
000000
000000
000000
000000
000000
000000
000000
000000
000000
000000
000000
000000
000000
000000
000000
000000
000000
000000
000000
000000
000000
000000
000000
000000
000000
000000
000000
000000
000000
ENDCHAR
STARTCHAR DEGREE SIGN, RING ABOVE
ENCODING 176
SWIDTH 1000 0
DWIDTH 24 0
BBX 24 48 0 -4
BITMAP
003F00
003F00
00F3C0
00F3C0
00F3C0
00F3C0
003F00
003F00
000000
000000
000000
000000
000000
000000
000000
000000
000000
000000
000000
000000
000000
000000
000000
000000
000000
000000
000000
000000
000000
000000
000000
000000
000000
000000
000000
000000
000000
000000
000000
000000
000000
000000
000000
000000
000000
000000
000000
000000
ENDCHAR
STARTCHAR PLUS-MINUS SIGN
ENCODING 177
SWIDTH 1000 0
DWIDTH 24 0
BBX 24 48 0 -4
BITMAP
000000
000000
000000
000000
000000
000000
000000
000000
000000
000000
000000
000000
003C00
003C00
003C00
003C00
003C00
003C00
0FFFF0
0FFFF0
0FFFF0
0FFFF0
003C00
003C00
003C00
003C00
003C00
003C00
000000
000000
000000
000000
0FFFF0
0FFFF0
0FFFF0
0FFFF0
000000
000000
000000
000000
000000
000000
000000
000000
000000
000000
000000
000000
ENDCHAR
STARTCHAR SUPERSCRIPT TWO
ENCODING 178
SWIDTH 1000 0
DWIDTH 24 0
BBX 24 48 0 -4
BITMAP
00FFC0
00FFC0
03FFF0
03FFF0
03C0F0
03C0F0
0003F0
0003F0
000FC0
000FC0
003F00
003F00
00FC00
00FC00
03F000
03F000
03FFF0
03FFF0
03FFF0
03FFF0
000000
000000
000000
000000
000000
000000
000000
000000
000000
000000
000000
000000
000000
000000
000000
000000
000000
000000
000000
000000
000000
000000
000000
000000
000000
000000
000000
000000
ENDCHAR
STARTCHAR SUPERSCRIPT THREE
ENCODING 179
SWIDTH 1000 0
DWIDTH 24 0
BBX 24 48 0 -4
BITMAP
00FFC0
00FFC0
03FFF0
03FFF0
03C0F0
03C0F0
0000F0
0000F0
003FF0
003FF0
003FF0
003FF0
0000F0
0000F0
03C0F0
03C0F0
03FFF0
03FFF0
00FFC0
00FFC0
000000
000000
000000
000000
000000
000000
000000
000000
000000
000000
000000
000000
000000
000000
000000
000000
000000
000000
000000
000000
000000
000000
000000
000000
000000
000000
000000
000000
ENDCHAR
STARTCHAR ACUTE ACCENT
ENCODING 180
SWIDTH 1000 0
DWIDTH 24 0
BBX 24 48 0 -4
BITMAP
000F00
000F00
003F00
003F00
00F000
00F000
000000
000000
000000
000000
000000
000000
000000
000000
000000
000000
000000
000000
000000
000000
000000
000000
000000
000000
000000
000000
000000
000000
000000
000000
000000
000000
000000
000000
000000
000000
000000
000000
000000
000000
000000
000000
000000
000000
000000
000000
000000
000000
ENDCHAR
STARTCHAR MICRO SIGN
ENCODING 181
SWIDTH 1000 0
DWIDTH 24 0
BBX 24 48 0 -4
BITMAP
000000
000000
000000
000000
000000
000000
000000
000000
000000
000000
000000
000000
000000
000000
000000
000000
000000
000000
003C3C
003C3C
003C3C
003C3C
003C3C
003C3C
003C3C
003C3C
00FCF0
00FCF0
00F0F0
00F0F0
00F0F0
00F0F0
00FFFC
00FFFC
03FFFC
03FFFC
03C03C
03C03C
03C000
03C000
0FC000
0FC000
0F0000
0F0000
0F0000
0F0000
0F0000
0F0000
ENDCHAR
STARTCHAR PILCROW SIGN
ENCODING 182
SWIDTH 1000 0
DWIDTH 24 0
BBX 24 48 0 -4
BITMAP
000000
000000
000000
000000
000000
000000
000000
000000
000000
000000
00FFFC
00FFFC
03FFCC
03FFCC
0FFFCC
0FFFCC
0FFFCC
0FFFCC
0FFFCC
0FFFCC
0FFFCC
0FFFCC
03FFCC
03FFCC
00FFCC
00FFCC
0000CC
0000CC
0000CC
0000CC
0000CC
0000CC
0000CC
0000CC
0000CC
0000CC
0000FC
0000FC
000000
000000
000000
000000
000000
000000
000000
000000
000000
000000
ENDCHAR
STARTCHAR MIDDLE DOT
ENCODING 183
SWIDTH 1000 0
DWIDTH 24 0
BBX 24 48 0 -4
BITMAP
000000
000000
000000
000000
000000
000000
000000
000000
000000
000000
000000
000000
000000
000000
000000
000000
000000
000000
000000
000000
003C00
003C00
00FF00
00FF00
00FF00
00FF00
003C00
003C00
000000
000000
000000
000000
000000
000000
000000
000000
000000
000000
000000
000000
000000
000000
000000
000000
000000
000000
000000
000000
ENDCHAR
STARTCHAR CEDILLA
ENCODING 184
SWIDTH 1000 0
DWIDTH 24 0
BBX 24 48 0 -4
BITMAP
000000
000000
000000
000000
000000
000000
000000
000000
000000
000000
000000
000000
000000
000000
000000
000000
000000
000000
000000
000000
000000
000000
000000
000000
000000
000000
000000
000000
000000
000000
000000
000000
000000
000000
000000
000000
003C00
003C00
003C00
003C00
003F00
003F00
0003C0
0003C0
00FFC0
00FFC0
00FF00
00FF00
ENDCHAR
STARTCHAR SUPERSCRIPT ONE
ENCODING 185
SWIDTH 1000 0
DWIDTH 24 0
BBX 24 48 0 -4
BITMAP
003C00
003C00
00FC00
00FC00
03FC00
03FC00
003C00
003C00
003C00
003C00
003C00
003C00
003C00
003C00
003C00
003C00
03FFC0
03FFC0
03FFC0
03FFC0
000000
000000
000000
000000
000000
000000
000000
000000
000000
000000
000000
000000
000000
000000
000000
000000
000000
000000
000000
000000
000000
000000
000000
000000
000000
000000
000000
000000
ENDCHAR
STARTCHAR MASCULINE ORDINAL INDICATOR
ENCODING 186
SWIDTH 1000 0
DWIDTH 24 0
BBX 24 48 0 -4
BITMAP
00FFC0
00FFC0
03FFF0
03FFF0
03C0F0
03C0F0
03C0F0
03C0F0
03C0F0
03C0F0
03C0F0
03C0F0
03FFF0
03FFF0
00FFC0
00FFC0
000000
000000
03FFF0
03FFF0
03FFF0
03FFF0
000000
000000
000000
000000
000000
000000
000000
000000
000000
000000
000000
000000
000000
000000
000000
000000
000000
000000
000000
000000
000000
000000
000000
000000
000000
000000
ENDCHAR
STARTCHAR RIGHT ANGLE QUOTATION MARK
ENCODING 187
SWIDTH 1000 0
DWIDTH 24 0
BBX 24 48 0 -4
BITMAP
000000
000000
000000
000000
000000
000000
000000
000000
0F3C00
0F3C00
03CF00
03CF00
03CF00
03CF00
00F3C0
00F3C0
00F3C0
00F3C0
003CF0
003CF0
003CF0
003CF0
000F3C
000F3C
000F3C
000F3C
003CF0
003CF0
003CF0
003CF0
00F3C0
00F3C0
00F3C0
00F3C0
03CF00
03CF00
03CF00
03CF00
0F3C00
0F3C00
000000
000000
000000
000000
000000
000000
000000
000000
ENDCHAR
STARTCHAR VULGAR FRACTION ONE QUARTER
ENCODING 188
SWIDTH 1000 0
DWIDTH 24 0
BBX 24 48 0 -4
BITMAP
000000
000000
000000
000000
03C000
03C000
0FC000
0FC000
03C000
03C000
03C000
03C000
03C000
03C000
03C03C
03C03C
0FF0FC
0FF0FC
0FF3F0
0FF3F0
000FC0
000FC0
003F00
003F00
00FC00
00FC00
03F0F0
03F0F0
0FC3F0
0FC3F0
3F0FF0
3F0FF0
3C3CF0
3C3CF0
003FFC
003FFC
003FFC
003FFC
0000F0
0000F0
0000F0
0000F0
000000
000000
000000
000000
000000
000000
ENDCHAR
STARTCHAR VULGAR FRACTION ONE HALF
ENCODING 189
SWIDTH 1000 0
DWIDTH 24 0
BBX 24 48 0 -4
BITMAP
000000
000000
000000
000000
03C000
03C000
0FC000
0FC000
03C000
03C000
03C000
03C000
03C000
03C000
03C03C
03C03C
0FF0FC
0FF0FC
0FF3F0
0FF3F0
000FC0
000FC0
003F00
003F00
00FC00
00FC00
03F3F0
03F3F0
0FCFFC
0FCFFC
3F0F3C
3F0F3C
3C003C
3C003C
0000F0
0000F0
0003C0
0003C0
000FFC
000FFC
000FFC
000FFC
000000
000000
000000
000000
000000
000000
ENDCHAR
STARTCHAR VULGAR FRACTION THREE QUARTERS
ENCODING 190
SWIDTH 1000 0
DWIDTH 24 0
BBX 24 48 0 -4
BITMAP
000000
000000
000000
000000
0FF000
0FF000
0FFC00
0FFC00
003C00
003C00
03F000
03F000
03F000
03F000
003C3C
003C3C
0FFCFC
0FFCFC
0FF3F0
0FF3F0
000FC0
000FC0
003F00
003F00
00FC00
00FC00
03F0F0
03F0F0
0FC3F0
0FC3F0
3F0FF0
3F0FF0
3C3CF0
3C3CF0
003FFC
003FFC
003FFC
003FFC
0000F0
0000F0
0000F0
0000F0
000000
000000
000000
000000
000000
000000
ENDCHAR
STARTCHAR INVERTED QUESTION MARK
ENCODING 191
SWIDTH 1000 0
DWIDTH 24 0
BBX 24 48 0 -4
BITMAP
000000
000000
000000
000000
000000
000000
000000
000000
003C00
003C00
00FF00
00FF00
003C00
003C00
000000
000000
000000
000000
003C00
003C00
003C00
003C00
003C00
003C00
00F000
00F000
03C000
03C000
0F0000
0F0000
0F0030
0F0030
0FC3F0
0FC3F0
03FFC0
03FFC0
00FF00
00FF00
000000
000000
000000
000000
000000
000000
000000
000000
000000
000000
ENDCHAR
STARTCHAR CAPITAL LETTER A WITH GRAVE ACCENT
ENCODING 192
SWIDTH 1000 0
DWIDTH 24 0
BBX 24 48 0 -4
BITMAP
003C00
003C00
003F00
003F00
0003C0
0003C0
000000
000000
000000
000000
00FFC0
00FFC0
03FFF0
03FFF0
0FC0FC
0FC0FC
0F003C
0F003C
0F003C
0F003C
0F003C
0F003C
0FFFFC
0FFFFC
0FFFFC
0FFFFC
0F003C
0F003C
0F003C
0F003C
0F003C
0F003C
0F003C
0F003C
0F003C
0F003C
0F003C
0F003C
000000
000000
000000
000000
000000
000000
000000
000000
000000
000000
ENDCHAR
STARTCHAR CAPITAL LETTER A WITH ACUTE ACCENT
ENCODING 193
SWIDTH 1000 0
DWIDTH 24 0
BBX 24 48 0 -4
BITMAP
000F00
000F00
003F00
003F00
00F000
00F000
000000
000000
000000
000000
00FFC0
00FFC0
03FFF0
03FFF0
0FC0FC
0FC0FC
0F003C
0F003C
0F003C
0F003C
0F003C
0F003C
0FFFFC
0FFFFC
0FFFFC
0FFFFC
0F003C
0F003C
0F003C
0F003C
0F003C
0F003C
0F003C
0F003C
0F003C
0F003C
0F003C
0F003C
000000
000000
000000
000000
000000
000000
000000
000000
000000
000000
ENDCHAR
STARTCHAR CAPITAL LETTER A WITH CIRCUMFLEX ACCENT
ENCODING 194
SWIDTH 1000 0
DWIDTH 24 0
BBX 24 48 0 -4
BITMAP
003F00
003F00
00FFC0
00FFC0
03C0F0
03C0F0
000000
000000
000000
000000
00FFC0
00FFC0
03FFF0
03FFF0
0FC0FC
0FC0FC
0F003C
0F003C
0F003C
0F003C
0F003C
0F003C
0FFFFC
0FFFFC
0FFFFC
0FFFFC
0F003C
0F003C
0F003C
0F003C
0F003C
0F003C
0F003C
0F003C
0F003C
0F003C
0F003C
0F003C
000000
000000
000000
000000
000000
000000
000000
000000
000000
000000
ENDCHAR
STARTCHAR CAPITAL LETTER A WITH TILDE
ENCODING 195
SWIDTH 1000 0
DWIDTH 24 0
BBX 24 48 0 -4
BITMAP
03F00C
03F00C
0F3C3C
0F3C3C
0C0FF0
0C0FF0
000000
000000
000000
000000
00FFC0
00FFC0
03FFF0
03FFF0
0FC0FC
0FC0FC
0F003C
0F003C
0F003C
0F003C
0F003C
0F003C
0FFFFC
0FFFFC
0FFFFC
0FFFFC
0F003C
0F003C
0F003C
0F003C
0F003C
0F003C
0F003C
0F003C
0F003C
0F003C
0F003C
0F003C
000000
000000
000000
000000
000000
000000
000000
000000
000000
000000
ENDCHAR
STARTCHAR CAPITAL LETTER A WITH DIAERESIS
ENCODING 196
SWIDTH 1000 0
DWIDTH 24 0
BBX 24 48 0 -4
BITMAP
000000
000000
03C0F0
03C0F0
03C0F0
03C0F0
000000
000000
000000
000000
00FFC0
00FFC0
03FFF0
03FFF0
0FC0FC
0FC0FC
0F003C
0F003C
0F003C
0F003C
0F003C
0F003C
0FFFFC
0FFFFC
0FFFFC
0FFFFC
0F003C
0F003C
0F003C
0F003C
0F003C
0F003C
0F003C
0F003C
0F003C
0F003C
0F003C
0F003C
000000
000000
000000
000000
000000
000000
000000
000000
000000
000000
ENDCHAR
STARTCHAR CAPITAL LETTER A WITH RING ABOVE
ENCODING 197
SWIDTH 1000 0
DWIDTH 24 0
BBX 24 48 0 -4
BITMAP
003F00
003F00
00F3C0
00F3C0
00F3C0
00F3C0
003F00
003F00
000000
000000
00FFC0
00FFC0
03FFF0
03FFF0
0FC0FC
0FC0FC
0F003C
0F003C
0F003C
0F003C
0F003C
0F003C
0FFFFC
0FFFFC
0FFFFC
0FFFFC
0F003C
0F003C
0F003C
0F003C
0F003C
0F003C
0F003C
0F003C
0F003C
0F003C
0F003C
0F003C
000000
000000
000000
000000
000000
000000
000000
000000
000000
000000
ENDCHAR
STARTCHAR CAPITAL DIPHTHONG A WITH E
ENCODING 198
SWIDTH 1000 0
DWIDTH 24 0
BBX 24 48 0 -4
BITMAP
000000
000000
000000
000000
000000
000000
000000
000000
000000
000000
03FFFC
03FFFC
03FFFC
03FFFC
0F0F00
0F0F00
0F0F00
0F0F00
3C0F00
3C0F00
3C0FFC
3C0FFC
3FFFFC
3FFFFC
3FFF00
3FFF00
3C0F00
3C0F00
3C0F00
3C0F00
3C0F00
3C0F00
3C0F00
3C0F00
3C0FFC
3C0FFC
3C0FFC
3C0FFC
000000
000000
000000
000000
000000
000000
000000
000000
000000
000000
ENDCHAR
STARTCHAR CAPITAL LETTER C WITH CEDILLA
ENCODING 199
SWIDTH 1000 0
DWIDTH 24 0
BBX 24 48 0 -4
BITMAP
000000
000000
000000
000000
000000
000000
000000
000000
000000
000000
00FFC0
00FFC0
03FFF0
03FFF0
0FC0FC
0FC0FC
0F003C
0F003C
0F0000
0F0000
0F0000
0F0000
0F0000
0F0000
0F0000
0F0000
0F0000
0F0000
0F0000
0F0000
0F003C
0F003C
0FC0FC
0FC0FC
03FFF0
03FFF0
00FFC0
00FFC0
003C00
003C00
003F00
003F00
0003C0
0003C0
00FFC0
00FFC0
00FF00
00FF00
ENDCHAR
STARTCHAR CAPITAL LETTER E WITH GRAVE ACCENT
ENCODING 200
SWIDTH 1000 0
DWIDTH 24 0
BBX 24 48 0 -4
BITMAP
003C00
003C00
003F00
003F00
0003C0
0003C0
000000
000000
000000
000000
0FFFFC
0FFFFC
0FFFFC
0FFFFC
0F0000
0F0000
0F0000
0F0000
0F0000
0F0000
0F0000
0F0000
0FFFC0
0FFFC0
0FFFC0
0FFFC0
0F0000
0F0000
0F0000
0F0000
0F0000
0F0000
0F0000
0F0000
0FFFFC
0FFFFC
0FFFFC
0FFFFC
000000
000000
000000
000000
000000
000000
000000
000000
000000
000000
ENDCHAR
STARTCHAR CAPITAL LETTER E WITH ACUTE ACCENT
ENCODING 201
SWIDTH 1000 0
DWIDTH 24 0
BBX 24 48 0 -4
BITMAP
000F00
000F00
003F00
003F00
00F000
00F000
000000
000000
000000
000000
0FFFFC
0FFFFC
0FFFFC
0FFFFC
0F0000
0F0000
0F0000
0F0000
0F0000
0F0000
0F0000
0F0000
0FFFC0
0FFFC0
0FFFC0
0FFFC0
0F0000
0F0000
0F0000
0F0000
0F0000
0F0000
0F0000
0F0000
0FFFFC
0FFFFC
0FFFFC
0FFFFC
000000
000000
000000
000000
000000
000000
000000
000000
000000
000000
ENDCHAR
STARTCHAR CAPITAL LETTER E WITH CIRCUMFLEX ACCENT
ENCODING 202
SWIDTH 1000 0
DWIDTH 24 0
BBX 24 48 0 -4
BITMAP
003F00
003F00
00FFC0
00FFC0
03C0F0
03C0F0
000000
000000
000000
000000
0FFFFC
0FFFFC
0FFFFC
0FFFFC
0F0000
0F0000
0F0000
0F0000
0F0000
0F0000
0F0000
0F0000
0FFFC0
0FFFC0
0FFFC0
0FFFC0
0F0000
0F0000
0F0000
0F0000
0F0000
0F0000
0F0000
0F0000
0FFFFC
0FFFFC
0FFFFC
0FFFFC
000000
000000
000000
000000
000000
000000
000000
000000
000000
000000
ENDCHAR
STARTCHAR CAPITAL LETTER E WITH DIAERESIS
ENCODING 203
SWIDTH 1000 0
DWIDTH 24 0
BBX 24 48 0 -4
BITMAP
000000
000000
03C0F0
03C0F0
03C0F0
03C0F0
000000
000000
000000
000000
0FFFFC
0FFFFC
0FFFFC
0FFFFC
0F0000
0F0000
0F0000
0F0000
0F0000
0F0000
0F0000
0F0000
0FFFC0
0FFFC0
0FFFC0
0FFFC0
0F0000
0F0000
0F0000
0F0000
0F0000
0F0000
0F0000
0F0000
0FFFFC
0FFFFC
0FFFFC
0FFFFC
000000
000000
000000
000000
000000
000000
000000
000000
000000
000000
ENDCHAR
STARTCHAR CAPITAL LETTER I WITH GRAVE ACCENT
ENCODING 204
SWIDTH 1000 0
DWIDTH 24 0
BBX 24 48 0 -4
BITMAP
00F000
00F000
00FC00
00FC00
000F00
000F00
000000
000000
000000
000000
03FFC0
03FFC0
03FFC0
03FFC0
003C00
003C00
003C00
003C00
003C00
003C00
003C00
003C00
003C00
003C00
003C00
003C00
003C00
003C00
003C00
003C00
003C00
003C00
003C00
003C00
03FFC0
03FFC0
03FFC0
03FFC0
000000
000000
000000
000000
000000
000000
000000
000000
000000
000000
ENDCHAR
STARTCHAR CAPITAL LETTER I WITH ACUTE ACCENT
ENCODING 205
SWIDTH 1000 0
DWIDTH 24 0
BBX 24 48 0 -4
BITMAP
000F00
000F00
003F00
003F00
00F000
00F000
000000
000000
000000
000000
03FFC0
03FFC0
03FFC0
03FFC0
003C00
003C00
003C00
003C00
003C00
003C00
003C00
003C00
003C00
003C00
003C00
003C00
003C00
003C00
003C00
003C00
003C00
003C00
003C00
003C00
03FFC0
03FFC0
03FFC0
03FFC0
000000
000000
000000
000000
000000
000000
000000
000000
000000
000000
ENDCHAR
STARTCHAR CAPITAL LETTER I WITH CIRCUMFLEX ACCENT
ENCODING 206
SWIDTH 1000 0
DWIDTH 24 0
BBX 24 48 0 -4
BITMAP
003C00
003C00
00FF00
00FF00
03C3C0
03C3C0
000000
000000
000000
000000
03FFC0
03FFC0
03FFC0
03FFC0
003C00
003C00
003C00
003C00
003C00
003C00
003C00
003C00
003C00
003C00
003C00
003C00
003C00
003C00
003C00
003C00
003C00
003C00
003C00
003C00
03FFC0
03FFC0
03FFC0
03FFC0
000000
000000
000000
000000
000000
000000
000000
000000
000000
000000
ENDCHAR
STARTCHAR CAPITAL LETTER I WITH DIAERESIS
ENCODING 207
SWIDTH 1000 0
DWIDTH 24 0
BBX 24 48 0 -4
BITMAP
000000
000000
03C3C0
03C3C0
03C3C0
03C3C0
000000
000000
000000
000000
03FFC0
03FFC0
03FFC0
03FFC0
003C00
003C00
003C00
003C00
003C00
003C00
003C00
003C00
003C00
003C00
003C00
003C00
003C00
003C00
003C00
003C00
003C00
003C00
003C00
003C00
03FFC0
03FFC0
03FFC0
03FFC0
000000
000000
000000
000000
000000
000000
000000
000000
000000
000000
ENDCHAR
STARTCHAR CAPITAL ICELANDIC LETTER ETH
ENCODING 208
SWIDTH 1000 0
DWIDTH 24 0
BBX 24 48 0 -4
BITMAP
000000
000000
000000
000000
000000
000000
000000
000000
000000
000000
0FFFC0
0FFFC0
0FFFF0
0FFFF0
0F00FC
0F00FC
0F003C
0F003C
0F003C
0F003C
0F003C
0F003C
3FFC3C
3FFC3C
3FFC3C
3FFC3C
0F003C
0F003C
0F003C
0F003C
0F003C
0F003C
0F00FC
0F00FC
0FFFF0
0FFFF0
0FFFC0
0FFFC0
000000
000000
000000
000000
000000
000000
000000
000000
000000
000000
ENDCHAR
STARTCHAR CAPITAL LETTER N WITH TILDE
ENCODING 209
SWIDTH 1000 0
DWIDTH 24 0
BBX 24 48 0 -4
BITMAP
03F00C
03F00C
0F3C3C
0F3C3C
0C0FF0
0C0FF0
000000
000000
000000
000000
0F003C
0F003C
0FC03C
0FC03C
0FC03C
0FC03C
0FF03C
0FF03C
0FF03C
0FF03C
0F3C3C
0F3C3C
0F3C3C
0F3C3C
0F0F3C
0F0F3C
0F0F3C
0F0F3C
0F03FC
0F03FC
0F03FC
0F03FC
0F00FC
0F00FC
0F00FC
0F00FC
0F003C
0F003C
000000
000000
000000
000000
000000
000000
000000
000000
000000
000000
ENDCHAR
STARTCHAR CAPITAL LETTER O WITH GRAVE ACCENT
ENCODING 210
SWIDTH 1000 0
DWIDTH 24 0
BBX 24 48 0 -4
BITMAP
003C00
003C00
003F00
003F00
0003C0
0003C0
000000
000000
000000
000000
00FFC0
00FFC0
03FFF0
03FFF0
0FC0FC
0FC0FC
0F003C
0F003C
0F003C
0F003C
0F003C
0F003C
0F003C
0F003C
0F003C
0F003C
0F003C
0F003C
0F003C
0F003C
0F003C
0F003C
0FC0FC
0FC0FC
03FFF0
03FFF0
00FFC0
00FFC0
000000
000000
000000
000000
000000
000000
000000
000000
000000
000000
ENDCHAR
STARTCHAR CAPITAL LETTER O WITH ACUTE ACCENT
ENCODING 211
SWIDTH 1000 0
DWIDTH 24 0
BBX 24 48 0 -4
BITMAP
000F00
000F00
003F00
003F00
00F000
00F000
000000
000000
000000
000000
00FFC0
00FFC0
03FFF0
03FFF0
0FC0FC
0FC0FC
0F003C
0F003C
0F003C
0F003C
0F003C
0F003C
0F003C
0F003C
0F003C
0F003C
0F003C
0F003C
0F003C
0F003C
0F003C
0F003C
0FC0FC
0FC0FC
03FFF0
03FFF0
00FFC0
00FFC0
000000
000000
000000
000000
000000
000000
000000
000000
000000
000000
ENDCHAR
STARTCHAR CAPITAL LETTER O WITH CIRCUMFLEX ACCENT
ENCODING 212
SWIDTH 1000 0
DWIDTH 24 0
BBX 24 48 0 -4
BITMAP
003F00
003F00
00FFC0
00FFC0
03C0F0
03C0F0
000000
000000
000000
000000
00FFC0
00FFC0
03FFF0
03FFF0
0FC0FC
0FC0FC
0F003C
0F003C
0F003C
0F003C
0F003C
0F003C
0F003C
0F003C
0F003C
0F003C
0F003C
0F003C
0F003C
0F003C
0F003C
0F003C
0FC0FC
0FC0FC
03FFF0
03FFF0
00FFC0
00FFC0
000000
000000
000000
000000
000000
000000
000000
000000
000000
000000
ENDCHAR
STARTCHAR CAPITAL LETTER O WITH TILDE
ENCODING 213
SWIDTH 1000 0
DWIDTH 24 0
BBX 24 48 0 -4
BITMAP
03F00C
03F00C
0F3C3C
0F3C3C
0C0FF0
0C0FF0
000000
000000
000000
000000
00FFC0
00FFC0
03FFF0
03FFF0
0FC0FC
0FC0FC
0F003C
0F003C
0F003C
0F003C
0F003C
0F003C
0F003C
0F003C
0F003C
0F003C
0F003C
0F003C
0F003C
0F003C
0F003C
0F003C
0FC0FC
0FC0FC
03FFF0
03FFF0
00FFC0
00FFC0
000000
000000
000000
000000
000000
000000
000000
000000
000000
000000
ENDCHAR
STARTCHAR CAPITAL LETTER O WITH DIAERESIS
ENCODING 214
SWIDTH 1000 0
DWIDTH 24 0
BBX 24 48 0 -4
BITMAP
000000
000000
03C0F0
03C0F0
03C0F0
03C0F0
000000
000000
000000
000000
00FFC0
00FFC0
03FFF0
03FFF0
0FC0FC
0FC0FC
0F003C
0F003C
0F003C
0F003C
0F003C
0F003C
0F003C
0F003C
0F003C
0F003C
0F003C
0F003C
0F003C
0F003C
0F003C
0F003C
0FC0FC
0FC0FC
03FFF0
03FFF0
00FFC0
00FFC0
000000
000000
000000
000000
000000
000000
000000
000000
000000
000000
ENDCHAR
STARTCHAR MULTIPLICATION SIGN
ENCODING 215
SWIDTH 1000 0
DWIDTH 24 0
BBX 24 48 0 -4
BITMAP
000000
000000
000000
000000
000000
000000
000000
000000
000000
000000
000000
000000
000000
000000
000000
000000
0F003C
0F003C
0FC0FC
0FC0FC
03F3F0
03F3F0
00FFC0
00FFC0
003F00
003F00
00FFC0
00FFC0
03F3F0
03F3F0
0FC0FC
0FC0FC
0F003C
0F003C
000000
000000
000000
000000
000000
000000
000000
000000
000000
000000
000000
000000
000000
000000
ENDCHAR
STARTCHAR CAPITAL LETTER O WITH OBLIQUE STROKE
ENCODING 216
SWIDTH 1000 0
DWIDTH 24 0
BBX 24 48 0 -4
BITMAP
000000
000000
000000
000000
000000
000000
000000
000000
000000
000000
00FFCC
00FFCC
03FFFC
03FFFC
0FC0FC
0FC0FC
0F00FC
0F00FC
0F03FC
0F03FC
0F033C
0F033C
0F0F3C
0F0F3C
0F3C3C
0F3C3C
0F303C
0F303C
0FF03C
0FF03C
0FC03C
0FC03C
0FC0FC
0FC0FC
0FFFF0
0FFFF0
0CFFC0
0CFFC0
000000
000000
000000
000000
000000
000000
000000
000000
000000
000000
ENDCHAR
STARTCHAR CAPITAL LETTER U WITH GRAVE ACCENT
ENCODING 217
SWIDTH 1000 0
DWIDTH 24 0
BBX 24 48 0 -4
BITMAP
003C00
003C00
003F00
003F00
0003C0
0003C0
000000
000000
000000
000000
0F003C
0F003C
0F003C
0F003C
0F003C
0F003C
0F003C
0F003C
0F003C
0F003C
0F003C
0F003C
0F003C
0F003C
0F003C
0F003C
0F003C
0F003C
0F003C
0F003C
0F003C
0F003C
0FC0FC
0FC0FC
03FFF0
03FFF0
00FFC0
00FFC0
000000
000000
000000
000000
000000
000000
000000
000000
000000
000000
ENDCHAR
STARTCHAR CAPITAL LETTER U WITH ACUTE ACCENT
ENCODING 218
SWIDTH 1000 0
DWIDTH 24 0
BBX 24 48 0 -4
BITMAP
000F00
000F00
003F00
003F00
00F000
00F000
000000
000000
000000
000000
0F003C
0F003C
0F003C
0F003C
0F003C
0F003C
0F003C
0F003C
0F003C
0F003C
0F003C
0F003C
0F003C
0F003C
0F003C
0F003C
0F003C
0F003C
0F003C
0F003C
0F003C
0F003C
0FC0FC
0FC0FC
03FFF0
03FFF0
00FFC0
00FFC0
000000
000000
000000
000000
000000
000000
000000
000000
000000
000000
ENDCHAR
STARTCHAR CAPITAL LETTER U WITH CIRCUMFLEX ACCENT
ENCODING 219
SWIDTH 1000 0
DWIDTH 24 0
BBX 24 48 0 -4
BITMAP
003F00
003F00
00FFC0
00FFC0
03C0F0
03C0F0
000000
000000
000000
000000
0F003C
0F003C
0F003C
0F003C
0F003C
0F003C
0F003C
0F003C
0F003C
0F003C
0F003C
0F003C
0F003C
0F003C
0F003C
0F003C
0F003C
0F003C
0F003C
0F003C
0F003C
0F003C
0FC0FC
0FC0FC
03FFF0
03FFF0
00FFC0
00FFC0
000000
000000
000000
000000
000000
000000
000000
000000
000000
000000
ENDCHAR
STARTCHAR CAPITAL LETTER U WITH DIAERESIS
ENCODING 220
SWIDTH 1000 0
DWIDTH 24 0
BBX 24 48 0 -4
BITMAP
000000
000000
03C0F0
03C0F0
03C0F0
03C0F0
000000
000000
000000
000000
0F003C
0F003C
0F003C
0F003C
0F003C
0F003C
0F003C
0F003C
0F003C
0F003C
0F003C
0F003C
0F003C
0F003C
0F003C
0F003C
0F003C
0F003C
0F003C
0F003C
0F003C
0F003C
0FC0FC
0FC0FC
03FFF0
03FFF0
00FFC0
00FFC0
000000
000000
000000
000000
000000
000000
000000
000000
000000
000000
ENDCHAR
STARTCHAR CAPITAL LETTER Y WITH ACUTE ACCENT
ENCODING 221
SWIDTH 1000 0
DWIDTH 24 0
BBX 24 48 0 -4
BITMAP
000F00
000F00
003F00
003F00
00F000
00F000
000000
000000
000000
000000
3C003C
3C003C
3C003C
3C003C
0F00F0
0F00F0
0F00F0
0F00F0
03C3C0
03C3C0
03FFC0
03FFC0
00FF00
00FF00
003C00
003C00
003C00
003C00
003C00
003C00
003C00
003C00
003C00
003C00
003C00
003C00
003C00
003C00
000000
000000
000000
000000
000000
000000
000000
000000
000000
000000
ENDCHAR
STARTCHAR CAPITAL ICELANDIC LETTER THORN
ENCODING 222
SWIDTH 1000 0
DWIDTH 24 0
BBX 24 48 0 -4
BITMAP
000000
000000
000000
000000
000000
000000
000000
000000
000000
000000
0F03C0
0F03C0
0F0FF0
0F0FF0
0F3C3C
0F3C3C
0FF03C
0FF03C
0FC03C
0FC03C
0F003C
0F003C
0F003C
0F003C
0FC03C
0FC03C
0FF03C
0FF03C
0F3C3C
0F3C3C
0F0FF0
0F0FF0
0F03C0
0F03C0
0F0000
0F0000
0F0000
0F0000
3C0000
3C0000
300000
300000
000000
000000
000000
000000
000000
000000
ENDCHAR
STARTCHAR SMALL GERMAN LETTER SHARP s
ENCODING 223
SWIDTH 1000 0
DWIDTH 24 0
BBX 24 48 0 -4
BITMAP
000000
000000
000000
000000
000000
000000
000000
000000
000000
000000
00FFC0
00FFC0
03FFF0
03FFF0
0FC0FC
0FC0FC
0F003C
0F003C
0F003C
0F003C
0F00FC
0F00FC
0F0FF0
0F0FF0
0F0FFC
0F0FFC
0F00FC
0F00FC
0F003C
0F003C
0F003C
0F003C
0F00FC
0F00FC
0F0FF0
0F0FF0
0F0FC0
0F0FC0
000000
000000
000000
000000
000000
000000
000000
000000
000000
000000
ENDCHAR
STARTCHAR SMALL LETTER a WITH GRAVE ACCENT
ENCODING 224
SWIDTH 1000 0
DWIDTH 24 0
BBX 24 48 0 -4
BITMAP
000000
000000
000000
000000
000000
000000
003C00
003C00
003F00
003F00
0003C0
0003C0
000000
000000
000000
000000
003FC0
003FC0
00FFF0
00FFF0
03C03C
03C03C
00003C
00003C
003FFC
003FFC
03FFFC
03FFFC
0F003C
0F003C
0F00FC
0F00FC
0F03FC
0F03FC
0FFF3C
0FFF3C
03FC3C
03FC3C
000000
000000
000000
000000
000000
000000
000000
000000
000000
000000
ENDCHAR
STARTCHAR SMALL LETTER a WITH ACUTE ACCENT
ENCODING 225
SWIDTH 1000 0
DWIDTH 24 0
BBX 24 48 0 -4
BITMAP
000000
000000
000000
000000
000000
000000
0003C0
0003C0
000FC0
000FC0
003C00
003C00
000000
000000
000000
000000
003FC0
003FC0
00FFF0
00FFF0
03C03C
03C03C
00003C
00003C
003FFC
003FFC
03FFFC
03FFFC
0F003C
0F003C
0F00FC
0F00FC
0F03FC
0F03FC
0FFF3C
0FFF3C
03FC3C
03FC3C
000000
000000
000000
000000
000000
000000
000000
000000
000000
000000
ENDCHAR
STARTCHAR SMALL LETTER a WITH CIRCUMFLEX ACCENT
ENCODING 226
SWIDTH 1000 0
DWIDTH 24 0
BBX 24 48 0 -4
BITMAP
000000
000000
000000
000000
000000
000000
003F00
003F00
00FFC0
00FFC0
03C0F0
03C0F0
000000
000000
000000
000000
003FC0
003FC0
00FFF0
00FFF0
03C03C
03C03C
00003C
00003C
003FFC
003FFC
03FFFC
03FFFC
0F003C
0F003C
0F00FC
0F00FC
0F03FC
0F03FC
0FFF3C
0FFF3C
03FC3C
03FC3C
000000
000000
000000
000000
000000
000000
000000
000000
000000
000000
ENDCHAR
STARTCHAR SMALL LETTER a WITH TILDE
ENCODING 227
SWIDTH 1000 0
DWIDTH 24 0
BBX 24 48 0 -4
BITMAP
000000
000000
000000
000000
000000
000000
03F00C
03F00C
0F3C3C
0F3C3C
0C0FF0
0C0FF0
000000
000000
000000
000000
003FC0
003FC0
00FFF0
00FFF0
03C03C
03C03C
00003C
00003C
003FFC
003FFC
03FFFC
03FFFC
0F003C
0F003C
0F00FC
0F00FC
0F03FC
0F03FC
0FFF3C
0FFF3C
03FC3C
03FC3C
000000
000000
000000
000000
000000
000000
000000
000000
000000
000000
ENDCHAR
STARTCHAR SMALL LETTER a WITH DIAERESIS
ENCODING 228
SWIDTH 1000 0
DWIDTH 24 0
BBX 24 48 0 -4
BITMAP
000000
000000
000000
000000
000000
000000
000000
000000
00F0F0
00F0F0
00F0F0
00F0F0
000000
000000
000000
000000
003FC0
003FC0
00FFF0
00FFF0
03C03C
03C03C
00003C
00003C
003FFC
003FFC
03FFFC
03FFFC
0F003C
0F003C
0F00FC
0F00FC
0F03FC
0F03FC
0FFF3C
0FFF3C
03FC3C
03FC3C
000000
000000
000000
000000
000000
000000
000000
000000
000000
000000
ENDCHAR
STARTCHAR SMALL LETTER a WITH RING ABOVE
ENCODING 229
SWIDTH 1000 0
DWIDTH 24 0
BBX 24 48 0 -4
BITMAP
000000
000000
000000
000000
000000
000000
003F00
003F00
00F3C0
00F3C0
00F3C0
00F3C0
003F00
003F00
000000
000000
003FC0
003FC0
00FFF0
00FFF0
03C03C
03C03C
00003C
00003C
003FFC
003FFC
03FFFC
03FFFC
0F003C
0F003C
0F00FC
0F00FC
0F03FC
0F03FC
0FFF3C
0FFF3C
03FC3C
03FC3C
000000
000000
000000
000000
000000
000000
000000
000000
000000
000000
ENDCHAR
STARTCHAR SMALL DIPHTHONG a WITH e
ENCODING 230
SWIDTH 1000 0
DWIDTH 24 0
BBX 24 48 0 -4
BITMAP
000000
000000
000000
000000
000000
000000
000000
000000
000000
000000
000000
000000
000000
000000
000000
000000
0FC3F0
0FC3F0
3FFFFC
3FFFFC
303C3C
303C3C
003C3C
003C3C
03FFFC
03FFFC
0FFFF0
0FFFF0
3C3C00
3C3C00
3C3C00
3C3C00
3C3C3C
3C3C3C
3FFFFC
3FFFFC
0FFFF0
0FFFF0
000000
000000
000000
000000
000000
000000
000000
000000
000000
000000
ENDCHAR
STARTCHAR SMALL LETTER c WITH CEDILLA
ENCODING 231
SWIDTH 1000 0
DWIDTH 24 0
BBX 24 48 0 -4
BITMAP
000000
000000
000000
000000
000000
000000
000000
000000
000000
000000
000000
000000
000000
000000
000000
000000
000000
000000
003FF0
003FF0
03FFF0
03FFF0
0FC03C
0FC03C
0F003C
0F003C
0F0000
0F0000
0F0000
0F0000
0F0000
0F0000
0FC03C
0FC03C
03FFFC
03FFFC
00FFF0
00FFF0
003C00
003C00
003F00
003F00
0003C0
0003C0
00FFC0
00FFC0
00FF00
00FF00
ENDCHAR
STARTCHAR SMALL LETTER e WITH GRAVE ACCENT
ENCODING 232
SWIDTH 1000 0
DWIDTH 24 0
BBX 24 48 0 -4
BITMAP
000000
000000
000000
000000
000000
000000
000000
000000
003C00
003C00
003F00
003F00
0003C0
0003C0
000000
000000
000000
000000
00FFC0
00FFC0
03FFF0
03FFF0
0FC03C
0FC03C
0F003C
0F003C
0FFFFC
0FFFFC
0FFFFC
0FFFFC
0F0000
0F0000
0F003C
0F003C
03FFFC
03FFFC
00FFF0
00FFF0
000000
000000
000000
000000
000000
000000
000000
000000
000000
000000
ENDCHAR
STARTCHAR SMALL LETTER e WITH ACUTE ACCENT
ENCODING 233
SWIDTH 1000 0
DWIDTH 24 0
BBX 24 48 0 -4
BITMAP
000000
000000
000000
000000
000000
000000
000000
000000
000F00
000F00
003F00
003F00
00F000
00F000
000000
000000
000000
000000
00FFC0
00FFC0
03FFF0
03FFF0
0FC03C
0FC03C
0F003C
0F003C
0FFFFC
0FFFFC
0FFFFC
0FFFFC
0F0000
0F0000
0F003C
0F003C
03FFFC
03FFFC
00FFF0
00FFF0
000000
000000
000000
000000
000000
000000
000000
000000
000000
000000
ENDCHAR
STARTCHAR SMALL LETTER e WITH CIRCUMFLEX ACCENT
ENCODING 234
SWIDTH 1000 0
DWIDTH 24 0
BBX 24 48 0 -4
BITMAP
000000
000000
000000
000000
000000
000000
000000
000000
003F00
003F00
00FFC0
00FFC0
03C0F0
03C0F0
000000
000000
000000
000000
00FFC0
00FFC0
03FFF0
03FFF0
0FC03C
0FC03C
0F003C
0F003C
0FFFFC
0FFFFC
0FFFFC
0FFFFC
0F0000
0F0000
0F003C
0F003C
03FFFC
03FFFC
00FFF0
00FFF0
000000
000000
000000
000000
000000
000000
000000
000000
000000
000000
ENDCHAR
STARTCHAR SMALL LETTER e WITH DIAERESIS
ENCODING 235
SWIDTH 1000 0
DWIDTH 24 0
BBX 24 48 0 -4
BITMAP
000000
000000
000000
000000
000000
000000
000000
000000
000000
000000
03C0F0
03C0F0
03C0F0
03C0F0
000000
000000
000000
000000
00FFC0
00FFC0
03FFF0
03FFF0
0FC03C
0FC03C
0F003C
0F003C
0FFFFC
0FFFFC
0FFFFC
0FFFFC
0F0000
0F0000
0F003C
0F003C
03FFFC
03FFFC
00FFF0
00FFF0
000000
000000
000000
000000
000000
000000
000000
000000
000000
000000
ENDCHAR
STARTCHAR SMALL LETTER i WITH GRAVE ACCENT
ENCODING 236
SWIDTH 1000 0
DWIDTH 24 0
BBX 24 48 0 -4
BITMAP
000000
000000
000000
000000
000000
000000
000000
000000
00F000
00F000
00FC00
00FC00
000F00
000F00
000000
000000
000000
000000
003C00
003C00
003C00
003C00
003C00
003C00
003C00
003C00
003C00
003C00
003C00
003C00
003C00
003C00
003C00
003C00
003C00
003C00
003C00
003C00
000000
000000
000000
000000
000000
000000
000000
000000
000000
000000
ENDCHAR
STARTCHAR SMALL LETTER i WITH ACUTE ACCENT
ENCODING 237
SWIDTH 1000 0
DWIDTH 24 0
BBX 24 48 0 -4
BITMAP
000000
000000
000000
000000
000000
000000
000000
000000
000F00
000F00
003F00
003F00
00F000
00F000
000000
000000
000000
000000
003C00
003C00
003C00
003C00
003C00
003C00
003C00
003C00
003C00
003C00
003C00
003C00
003C00
003C00
003C00
003C00
003C00
003C00
003C00
003C00
000000
000000
000000
000000
000000
000000
000000
000000
000000
000000
ENDCHAR
STARTCHAR SMALL LETTER i WITH CIRCUMFLEX ACCENT
ENCODING 238
SWIDTH 1000 0
DWIDTH 24 0
BBX 24 48 0 -4
BITMAP
000000
000000
000000
000000
000000
000000
000000
000000
003C00
003C00
00FF00
00FF00
03C3C0
03C3C0
000000
000000
000000
000000
003C00
003C00
003C00
003C00
003C00
003C00
003C00
003C00
003C00
003C00
003C00
003C00
003C00
003C00
003C00
003C00
003C00
003C00
003C00
003C00
000000
000000
000000
000000
000000
000000
000000
000000
000000
000000
ENDCHAR
STARTCHAR SMALL LETTER i WITH DIAERESIS
ENCODING 239
SWIDTH 1000 0
DWIDTH 24 0
BBX 24 48 0 -4
BITMAP
000000
000000
000000
000000
000000
000000
000000
000000
000000
000000
03C3C0
03C3C0
03C3C0
03C3C0
000000
000000
000000
000000
003C00
003C00
003C00
003C00
003C00
003C00
003C00
003C00
003C00
003C00
003C00
003C00
003C00
003C00
003C00
003C00
003C00
003C00
003C00
003C00
000000
000000
000000
000000
000000
000000
000000
000000
000000
000000
ENDCHAR
STARTCHAR SMALL ICELANDIC LETTER ETH
ENCODING 240
SWIDTH 1000 0
DWIDTH 24 0
BBX 24 48 0 -4
BITMAP
000000
000000
000000
000000
000000
000000
000000
000000
000000
000000
03F0FC
03F0FC
03FFFC
03FFFC
000FC0
000FC0
00FFF0
00FFF0
0FF0FC
0FF0FC
0F003C
0F003C
00FFFC
00FFFC
03FFFC
03FFFC
0FC03C
0FC03C
0F003C
0F003C
0F003C
0F003C
0FC0FC
0FC0FC
03FFF0
03FFF0
00FFC0
00FFC0
000000
000000
000000
000000
000000
000000
000000
000000
000000
000000
ENDCHAR
STARTCHAR SMALL LETTER n WITH TILDE
ENCODING 241
SWIDTH 1000 0
DWIDTH 24 0
BBX 24 48 0 -4
BITMAP
000000
000000
000000
000000
000000
000000
000000
000000
03F00C
03F00C
0F3C3C
0F3C3C
0C0FF0
0C0FF0
000000
000000
000000
000000
0F0FC0
0F0FC0
0F3FF0
0F3FF0
0FF03C
0FF03C
0FC03C
0FC03C
0F003C
0F003C
0F003C
0F003C
0F003C
0F003C
0F003C
0F003C
0F003C
0F003C
0F003C
0F003C
000000
000000
000000
000000
000000
000000
000000
000000
000000
000000
ENDCHAR
STARTCHAR SMALL LETTER o WITH GRAVE ACCENT
ENCODING 242
SWIDTH 1000 0
DWIDTH 24 0
BBX 24 48 0 -4
BITMAP
000000
000000
000000
000000
000000
000000
000000
000000
003C00
003C00
003F00
003F00
0003C0
0003C0
000000
000000
000000
000000
00FFC0
00FFC0
03FFF0
03FFF0
0FC0FC
0FC0FC
0F003C
0F003C
0F003C
0F003C
0F003C
0F003C
0F003C
0F003C
0FC0FC
0FC0FC
03FFF0
03FFF0
00FFC0
00FFC0
000000
000000
000000
000000
000000
000000
000000
000000
000000
000000
ENDCHAR
STARTCHAR SMALL LETTER o WITH ACUTE ACCENT
ENCODING 243
SWIDTH 1000 0
DWIDTH 24 0
BBX 24 48 0 -4
BITMAP
000000
000000
000000
000000
000000
000000
000000
000000
000F00
000F00
003F00
003F00
00F000
00F000
000000
000000
000000
000000
00FFC0
00FFC0
03FFF0
03FFF0
0FC0FC
0FC0FC
0F003C
0F003C
0F003C
0F003C
0F003C
0F003C
0F003C
0F003C
0FC0FC
0FC0FC
03FFF0
03FFF0
00FFC0
00FFC0
000000
000000
000000
000000
000000
000000
000000
000000
000000
000000
ENDCHAR
STARTCHAR SMALL LETTER o WITH CIRCUMFLEX ACCENT
ENCODING 244
SWIDTH 1000 0
DWIDTH 24 0
BBX 24 48 0 -4
BITMAP
000000
000000
000000
000000
000000
000000
000000
000000
003F00
003F00
00FFC0
00FFC0
03C0F0
03C0F0
000000
000000
000000
000000
00FFC0
00FFC0
03FFF0
03FFF0
0FC0FC
0FC0FC
0F003C
0F003C
0F003C
0F003C
0F003C
0F003C
0F003C
0F003C
0FC0FC
0FC0FC
03FFF0
03FFF0
00FFC0
00FFC0
000000
000000
000000
000000
000000
000000
000000
000000
000000
000000
ENDCHAR
STARTCHAR SMALL LETTER o WITH TILDE
ENCODING 245
SWIDTH 1000 0
DWIDTH 24 0
BBX 24 48 0 -4
BITMAP
000000
000000
000000
000000
000000
000000
000000
000000
03F00C
03F00C
0F3C3C
0F3C3C
0C0FF0
0C0FF0
000000
000000
000000
000000
00FFC0
00FFC0
03FFF0
03FFF0
0FC0FC
0FC0FC
0F003C
0F003C
0F003C
0F003C
0F003C
0F003C
0F003C
0F003C
0FC0FC
0FC0FC
03FFF0
03FFF0
00FFC0
00FFC0
000000
000000
000000
000000
000000
000000
000000
000000
000000
000000
ENDCHAR
STARTCHAR SMALL LETTER o WITH DIAERESIS
ENCODING 246
SWIDTH 1000 0
DWIDTH 24 0
BBX 24 48 0 -4
BITMAP
000000
000000
000000
000000
000000
000000
000000
000000
000000
000000
03C0F0
03C0F0
03C0F0
03C0F0
000000
000000
000000
000000
00FFC0
00FFC0
03FFF0
03FFF0
0FC0FC
0FC0FC
0F003C
0F003C
0F003C
0F003C
0F003C
0F003C
0F003C
0F003C
0FC0FC
0FC0FC
03FFF0
03FFF0
00FFC0
00FFC0
000000
000000
000000
000000
000000
000000
000000
000000
000000
000000
ENDCHAR
STARTCHAR DIVISION SIGN
ENCODING 247
SWIDTH 1000 0
DWIDTH 24 0
BBX 24 48 0 -4
BITMAP
000000
000000
000000
000000
000000
000000
000000
000000
000000
000000
000000
000000
000000
000000
003C00
003C00
00FF00
00FF00
003C00
003C00
000000
000000
3FFFFC
3FFFFC
3FFFFC
3FFFFC
000000
000000
003C00
003C00
00FF00
00FF00
003C00
003C00
000000
000000
000000
000000
000000
000000
000000
000000
000000
000000
000000
000000
000000
000000
ENDCHAR
STARTCHAR SMALL LETTER o WITH OBLIQUE STROKE
ENCODING 248
SWIDTH 1000 0
DWIDTH 24 0
BBX 24 48 0 -4
BITMAP
000000
000000
000000
000000
000000
000000
000000
000000
000000
000000
000000
000000
000000
000000
000000
000000
000000
000000
00FF3C
00FF3C
03FFFC
03FFFC
0FC3F0
0FC3F0
0F0FFC
0F0FFC
0F0F3C
0F0F3C
0F3F3C
0F3F3C
0FFC3C
0FFC3C
03F0FC
03F0FC
0FFFF0
0FFFF0
0F3FC0
0F3FC0
000000
000000
000000
000000
000000
000000
000000
000000
000000
000000
ENDCHAR
STARTCHAR SMALL LETTER u WITH GRAVE ACCENT
ENCODING 249
SWIDTH 1000 0
DWIDTH 24 0
BBX 24 48 0 -4
BITMAP
000000
000000
000000
000000
000000
000000
000000
000000
003C00
003C00
003F00
003F00
0003C0
0003C0
000000
000000
000000
000000
0F003C
0F003C
0F003C
0F003C
0F003C
0F003C
0F003C
0F003C
0F003C
0F003C
0F003C
0F003C
0F00FC
0F00FC
0FC3FC
0FC3FC
03FF3C
03FF3C
00FC3C
00FC3C
000000
000000
000000
000000
000000
000000
000000
000000
000000
000000
ENDCHAR
STARTCHAR SMALL LETTER u WITH ACUTE ACCENT
ENCODING 250
SWIDTH 1000 0
DWIDTH 24 0
BBX 24 48 0 -4
BITMAP
000000
000000
000000
000000
000000
000000
000000
000000
000F00
000F00
003F00
003F00
00F000
00F000
000000
000000
000000
000000
0F003C
0F003C
0F003C
0F003C
0F003C
0F003C
0F003C
0F003C
0F003C
0F003C
0F003C
0F003C
0F00FC
0F00FC
0FC3FC
0FC3FC
03FF3C
03FF3C
00FC3C
00FC3C
000000
000000
000000
000000
000000
000000
000000
000000
000000
000000
ENDCHAR
STARTCHAR SMALL LETTER u WITH CIRCUMFLEX ACCENT
ENCODING 251
SWIDTH 1000 0
DWIDTH 24 0
BBX 24 48 0 -4
BITMAP
000000
000000
000000
000000
000000
000000
000000
000000
003F00
003F00
00FFC0
00FFC0
03C0F0
03C0F0
000000
000000
000000
000000
0F003C
0F003C
0F003C
0F003C
0F003C
0F003C
0F003C
0F003C
0F003C
0F003C
0F003C
0F003C
0F00FC
0F00FC
0FC3FC
0FC3FC
03FF3C
03FF3C
00FC3C
00FC3C
000000
000000
000000
000000
000000
000000
000000
000000
000000
000000
ENDCHAR
STARTCHAR SMALL LETTER u WITH DIAERESIS
ENCODING 252
SWIDTH 1000 0
DWIDTH 24 0
BBX 24 48 0 -4
BITMAP
000000
000000
000000
000000
000000
000000
000000
000000
000000
000000
03C0F0
03C0F0
03C0F0
03C0F0
000000
000000
000000
000000
0F003C
0F003C
0F003C
0F003C
0F003C
0F003C
0F003C
0F003C
0F003C
0F003C
0F003C
0F003C
0F00FC
0F00FC
0FC3FC
0FC3FC
03FF3C
03FF3C
00FC3C
00FC3C
000000
000000
000000
000000
000000
000000
000000
000000
000000
000000
ENDCHAR
STARTCHAR SMALL LETTER y WITH ACUTE ACCENT
ENCODING 253
SWIDTH 1000 0
DWIDTH 24 0
BBX 24 48 0 -4
BITMAP
000000
000000
000000
000000
000000
000000
000000
000000
0003C0
0003C0
000FC0
000FC0
003C00
003C00
000000
000000
000000
000000
0F003C
0F003C
0F003C
0F003C
0F003C
0F003C
0F003C
0F003C
0F003C
0F003C
0F003C
0F003C
0F003C
0F003C
0FC0FC
0FC0FC
03FFFC
03FFFC
00FF3C
00FF3C
00003C
00003C
00003C
00003C
0000FC
0000FC
03FFF0
03FFF0
00FFC0
00FFC0
ENDCHAR
STARTCHAR SMALL ICELANDIC LETTER THORN
ENCODING 254
SWIDTH 1000 0
DWIDTH 24 0
BBX 24 48 0 -4
BITMAP
000000
000000
000000
000000
000000
000000
000000
000000
000000
000000
0F0000
0F0000
0F0000
0F0000
0F0000
0F0000
0F0000
0F0000
0F0FC0
0F0FC0
0F3FF0
0F3FF0
0FF0FC
0FF0FC
0FC03C
0FC03C
0F003C
0F003C
0F003C
0F003C
0F00FC
0F00FC
0F03F0
0F03F0
0FFFC0
0FFFC0
0FFF00
0FFF00
0F0000
0F0000
0F0000
0F0000
0F0000
0F0000
0F0000
0F0000
0F0000
0F0000
ENDCHAR
STARTCHAR SMALL LETTER y WITH DIAERESIS
ENCODING 255
SWIDTH 1000 0
DWIDTH 24 0
BBX 24 48 0 -4
BITMAP
000000
000000
000000
000000
000000
000000
000000
000000
000000
000000
03C0F0
03C0F0
03C0F0
03C0F0
000000
000000
000000
000000
0F003C
0F003C
0F003C
0F003C
0F003C
0F003C
0F003C
0F003C
0F003C
0F003C
0F003C
0F003C
0F003C
0F003C
0FC0FC
0FC0FC
03FFFC
03FFFC
00FF3C
00FF3C
00003C
00003C
00003C
00003C
0000FC
0000FC
03FFF0
03FFF0
00FFC0
00FFC0
ENDCHAR
ENDFONT
